<?xml version="1.0" standalone="no"?>
<!DOCTYPE svg PUBLIC "-//W3C//DTD SVG 1.1//EN" "http://www.w3.org/Graphics/SVG/1.1/DTD/svg11.dtd" >
<svg xmlns="http://www.w3.org/2000/svg">
<metadata></metadata>
<defs>
<font id="bt_fontlight" horiz-adv-x="1177" >
<font-face units-per-em="2048" ascent="1569" descent="-479" />
<missing-glyph horiz-adv-x="450" />
<glyph unicode="&#xfb01;" horiz-adv-x="1007" d="M23 924v77h188v156q0 178 83 257t279 79q70 0 136.5 -10t115.5 -29v-82q-59 20 -117.5 30.5t-132.5 10.5q-84 0 -138 -15.5t-84.5 -47t-43 -78.5t-12.5 -111v-160h563v-1001h-86v924h-477v-924h-86v924h-188z" />
<glyph unicode="&#xfb02;" horiz-adv-x="1038" d="M23 924v77h188v156q0 178 83 257t279 79q84 0 164 -14.5t140 -42.5v-1436h-86v1382q-49 16 -100.5 23.5t-115.5 7.5q-82 0 -136 -15.5t-85.5 -47t-44 -78.5t-12.5 -111v-160h324v-77h-324v-924h-86v924h-188z" />
<glyph unicode="&#xfb03;" horiz-adv-x="1546" d="M23 924v77h188v148q0 178 83 257t279 79q78 0 150 -13.5t127 -41.5q88 63 262 63q70 0 136.5 -10t115.5 -29v-82q-59 20 -117.5 30.5t-132.5 10.5q-84 0 -138 -15.5t-85 -47t-43 -78.5t-12 -111v-160h563v-1001h-86v924h-477v-924h-86v924h-453v-924h-86v924h-188z M297 1001h453v156q0 133 45 211q-47 18 -100.5 27.5t-119.5 9.5q-84 0 -138 -15.5t-84.5 -47t-43 -78.5t-12.5 -111v-152z" />
<glyph unicode="&#xfb04;" horiz-adv-x="1576" d="M23 924v77h188v148q0 178 83 257t279 79q78 0 150 -13.5t127 -41.5q88 63 262 63q84 0 164 -14.5t139 -42.5v-1436h-86v1382q-49 16 -100 23.5t-115 7.5q-82 0 -136 -15.5t-86 -47t-44 -78.5t-12 -111v-160h323v-77h-323v-924h-86v924h-453v-924h-86v924h-188zM297 1001 h453v156q0 133 45 211q-47 18 -100.5 27.5t-119.5 9.5q-84 0 -138 -15.5t-84.5 -47t-43 -78.5t-12.5 -111v-152z" />
<glyph unicode="&#xd;" horiz-adv-x="450" />
<glyph horiz-adv-x="0" />
<glyph horiz-adv-x="0" />
<glyph unicode=" "  horiz-adv-x="450" />
<glyph unicode="&#x09;" horiz-adv-x="450" />
<glyph unicode="&#xa0;" horiz-adv-x="450" />
<glyph unicode="!" horiz-adv-x="512" d="M156 82q0 41 27.5 73.5t72.5 32.5q41 0 70.5 -32.5t29.5 -73.5q1 -41 -30 -74q-31 -31 -70 -31q-41 0 -70.5 32t-29.5 73zM211 1477h92l-8 -1092h-76z" />
<glyph unicode="&#x22;" horiz-adv-x="552" d="M113 1288v189h84v-189l-15 -239h-53zM357 1288v189h84v-189l-15 -239h-53z" />
<glyph unicode="#" d="M109 354v76h253v389h-253v76h253v303h80v-303h293v303h80v-303h254v-76h-254v-389h254v-76h-254v-319h-80v319h-293v-319h-80v319h-253zM442 430h293v389h-293v-389z" />
<glyph unicode="$" d="M205 55v95q94 -49 173 -69t169 -20q158 0 244 80t86 232q0 100 -47.5 164.5t-117 112.5t-151.5 89t-151.5 91.5t-116.5 120t-47 177.5q0 160 89 255.5t247 107.5v221h82v-221q72 -4 132 -20.5t117 -40.5v-95q-72 37 -142.5 55.5t-149.5 18.5q-131 0 -207 -71.5 t-76 -198.5q0 -92 47 -153.5t116.5 -109t152.5 -88t153 -94t117 -126t47 -183.5q0 -166 -81 -269.5t-235 -129.5v-232h-82v223h-8q-205 0 -360 78z" />
<glyph unicode="%" horiz-adv-x="1806" d="M94 1104q0 74 15.5 143.5t51.5 122.5t96 85t151 32q90 0 150 -32t96 -85t51.5 -122.5t15.5 -143.5q0 -76 -15.5 -145.5t-52.5 -124.5q-35 -53 -95 -85t-150 -32t-150.5 31.5t-96.5 86t-51.5 124t-15.5 145.5zM193 1102q0 -55 9 -109.5t32.5 -97.5t65.5 -69.5t108 -26.5 q65 -1 106 26q43 27 66.5 70t33 97.5t9.5 109.5t-8.5 109.5t-32 97.5t-65.5 69.5t-109 26.5q-68 0 -110 -26.5t-65.5 -69.5t-31.5 -97.5t-8 -109.5zM459 0l790 1477h97l-783 -1477h-104zM1085 375q0 74 15.5 143.5t51.5 122.5t96.5 85t150.5 32t150.5 -32t96 -85t51 -122.5 t15.5 -143.5q0 -76 -15 -146t-52 -125q-35 -53 -95.5 -84.5t-150.5 -31.5t-150.5 31.5t-96.5 86t-51.5 124t-15.5 145.5zM1184 373q0 -55 9 -109.5t32.5 -97.5t65.5 -69.5t108 -26.5q65 -1 106 26q43 27 66.5 70t33 97t9.5 110q0 55 -8.5 109.5t-32 97.5t-65.5 69.5 t-109 26.5q-68 0 -110 -26.5t-65.5 -69.5t-31.5 -97.5t-8 -109.5z" />
<glyph unicode="&#x26;" horiz-adv-x="1282" d="M113 383q0 90 26.5 161.5t67.5 128t93 100.5t106 79q-72 143 -72 289q0 59 18.5 121.5t58.5 113.5t103.5 84t155.5 33q76 0 139 -14.5t109 -36.5v-82q-41 20 -105.5 35.5t-136.5 15.5q-127 0 -191.5 -77t-64.5 -199q0 -90 37 -182.5t104.5 -187.5t161.5 -196.5 t209 -210.5q43 86 70.5 221.5t31.5 288.5h76q0 -96 -11.5 -184t-28.5 -161.5t-37.5 -130t-39.5 -93.5l260 -236l-57 -63l-244 221q-92 -135 -199.5 -185t-246.5 -50q-98 0 -172 31.5t-123 86t-73.5 127t-24.5 152.5zM209 391q0 -150 82 -239t223 -89q76 0 132 16.5 t100.5 45.5t79 67.5t65.5 83.5q-173 160 -275 281t-170 219q-37 -20 -78.5 -54t-76.5 -81t-58.5 -109.5t-23.5 -140.5z" />
<glyph unicode="'" horiz-adv-x="309" d="M113 1288v189h84v-189l-15 -239h-53z" />
<glyph unicode="(" horiz-adv-x="479" d="M143 664q0 229 43 459.5t125 441.5h92q-41 -96 -71.5 -208t-52 -228.5t-32.5 -234.5t-11 -230q0 -246 48 -475.5t134 -440.5h-90q-88 211 -136.5 440.5t-48.5 475.5z" />
<glyph unicode=")" horiz-adv-x="479" d="M61 -252q86 211 134.5 440.5t48.5 475.5q0 113 -11.5 230.5t-33 234t-53 228t-70.5 208.5h92q82 -211 125 -441.5t43 -459.5q0 -246 -48 -475.5t-136 -440.5h-91z" />
<glyph unicode="*" horiz-adv-x="837" d="M82 958l276 148l-276 154l43 71l264 -168l-10 314h84l-12 -310l262 164l43 -71l-279 -154l279 -148l-43 -71l-262 162l10 -314h-82l8 314l-262 -162z" />
<glyph unicode="+" d="M119 643v78h426v422h90v-422h424v-78h-424v-422h-90v422h-426z" />
<glyph unicode="," horiz-adv-x="471" d="M98 -258q45 51 83 119.5t55 128.5q-47 4 -71 30.5t-24 67.5t29 74t70 33q47 0 74.5 -32t27.5 -79q0 -43 -12.5 -90t-33 -93t-46 -87t-51.5 -72h-101z" />
<glyph unicode="-" horiz-adv-x="888" d="M133 561v78h623v-78h-623z" />
<glyph unicode="." horiz-adv-x="471" d="M135 88q0 45 30 76t71 31q37 0 68.5 -30t31.5 -77q0 -43 -32 -73.5t-68 -30.5q-39 0 -70 27.5t-31 76.5z" />
<glyph unicode="/" horiz-adv-x="675" d="M31 -252l524 1729h90l-524 -1729h-90z" />
<glyph unicode="0" d="M125 743q0 127 19.5 260.5t72.5 242t145.5 178t237.5 69.5q137 0 226 -62.5t139.5 -166t70 -237.5t19.5 -277q0 -127 -20.5 -263t-71.5 -251q-51 -113 -140.5 -186t-226.5 -73q-147 0 -239.5 66t-143.5 173.5t-69.5 244.5t-18.5 282zM219 748q0 -66 4 -142t17.5 -152.5 t38 -147t64.5 -126t100.5 -88.5t142.5 -33q120 0 194 68t114 171t53.5 224t13.5 226q0 100 -11.5 215.5t-49.5 215t-112.5 166t-199.5 66.5q-115 0 -186.5 -63.5t-112.5 -162t-55.5 -215t-14.5 -222.5z" />
<glyph unicode="1" d="M227 0v84h361v1307l-361 -76v82l355 80h96v-1393h360v-84h-811z" />
<glyph unicode="2" d="M174 0v90q125 111 243 233.5t204 227.5q129 160 191 281.5t62 246.5q0 92 -24.5 154.5t-67.5 102.5t-103.5 57.5t-129.5 17.5q-88 0 -176 -21.5t-152 -54.5v82q72 35 151 55.5t187 20.5q88 0 163 -25.5t130 -76t86 -124t31 -171.5q0 -145 -61.5 -273.5t-151.5 -249.5 q-102 -135 -224 -259t-245 -230h735v-84h-848z" />
<glyph unicode="3" d="M164 29v82q70 -25 145.5 -38.5t161.5 -13.5q94 0 168 18.5t126 60.5t79.5 107.5t27.5 160.5q0 170 -85 246.5t-285 76.5h-178v80h178q76 0 140.5 19.5t111.5 58.5t73.5 95t26.5 128q0 164 -80 232.5t-258 68.5q-92 0 -162.5 -14.5t-126.5 -36.5v82q61 23 137 37t175 14 q84 0 158.5 -20.5t130 -64.5t88 -113.5t32.5 -166.5q0 -80 -21.5 -139t-57 -102t-82 -71t-95.5 -42q131 -29 204 -112.5t73 -253.5q0 -221 -133.5 -326t-368.5 -105q-98 0 -174 14.5t-129 37.5z" />
<glyph unicode="4" d="M135 455v71l637 951h109v-940h204v-82h-204v-455h-88v455h-658zM240 537h553v819z" />
<glyph unicode="5" d="M205 27v82q66 -25 146.5 -37.5t162.5 -12.5q197 0 306.5 106.5t109.5 305.5q0 178 -121 266t-332 88q-63 0 -115.5 -5t-101.5 -11v668h690v-84h-604v-494q29 4 70 6t100 2q100 0 192.5 -26.5t162 -82t111.5 -139.5t42 -196q0 -111 -36 -201t-103.5 -152.5t-163.5 -97.5 t-215 -35q-72 0 -157 14.5t-144 35.5z" />
<glyph unicode="6" d="M154 649q0 193 38.5 348.5t113.5 266t186.5 170t257.5 59.5q119 0 192 -23v-84q-41 10 -85 17.5t-107 7.5q-119 0 -208 -44t-150.5 -126t-96.5 -196.5t-45 -256.5q33 37 79 68t99 54.5t110.5 35.5t112.5 12q109 0 188 -37.5t130 -101t75.5 -147.5t24.5 -176 q0 -119 -32.5 -214.5t-93 -163t-145.5 -104.5t-190 -37q-125 0 -211 50.5t-140 139.5t-78.5 213t-24.5 269zM248 666q0 -129 17.5 -240t59.5 -192.5t112.5 -128t176.5 -46.5q70 0 135.5 26t115.5 78t80 133t30 189q0 391 -332 392q-63 0 -121.5 -16.5t-110 -43t-93.5 -59.5 t-70 -66v-26z" />
<glyph unicode="7" d="M100 1391v86h959v-86q-111 -127 -205 -295t-167 -352.5t-121 -376t-64 -367.5h-99q20 184 70.5 374.5t122.5 373t162 347.5t192 296h-850z" />
<glyph unicode="8" d="M113 389q0 147 80.5 248.5t212.5 148.5q-104 47 -173 130t-69 212q0 88 34.5 157t94 115t138.5 69.5t169 23.5q82 0 159 -20.5t135 -63.5t94 -108.5t36 -157.5q0 -70 -21.5 -125t-56.5 -99t-82 -77t-98 -56q135 -43 216 -144t81 -232q0 -106 -35 -187.5t-97.5 -135.5 t-149.5 -82t-193 -28q-229 0 -352 110t-123 302zM207 373q0 -141 101.5 -226.5t279.5 -85.5q82 0 151.5 21.5t120.5 62.5q51 43 80 105.5t29 144.5q0 143 -97.5 237.5t-320.5 119.5q-170 -35 -257 -130.5t-87 -248.5zM260 1137q0 -72 26.5 -129.5t73 -97.5t109.5 -63.5 t139 -29.5q53 4 109.5 29.5t101.5 66.5q47 43 77 100.5t30 129.5q0 141 -94.5 203.5t-243.5 62.5q-68 0 -127.5 -17.5t-104.5 -52t-70.5 -86t-25.5 -116.5z" />
<glyph unicode="9" d="M109 977q0 119 32.5 214t93 162.5t145.5 103.5t189 36q125 0 211 -50t140.5 -139.5t79 -212t24.5 -268.5q0 -193 -39 -348.5t-113.5 -266t-186.5 -169.5t-257 -59q-68 0 -119 8t-92 18v84q47 -12 94 -20.5t117 -8.5q119 0 208 44.5t150.5 126t96.5 196.5t45 254 q-31 -35 -76 -64.5t-97.5 -51t-107.5 -34t-108 -12.5q-113 0 -194 37t-133 100.5t-77.5 145.5t-25.5 174zM203 987q0 -385 344 -385q61 0 117.5 15.5t106.5 41t90 57.5t69 62v47q0 129 -17.5 236.5t-59.5 185.5t-112.5 121t-177.5 43q-72 0 -136.5 -25.5t-114.5 -78 t-79.5 -132t-29.5 -188.5z" />
<glyph unicode=":" horiz-adv-x="471" d="M135 88q0 45 30 76t71 31q37 0 68.5 -30t31.5 -77q0 -43 -32 -73.5t-68 -30.5q-39 0 -70 27.5t-31 76.5zM135 870q0 45 30 76t71 31q37 0 68.5 -30t31.5 -77q0 -43 -32 -73.5t-68 -30.5q-39 0 -70 27.5t-31 76.5z" />
<glyph unicode=";" horiz-adv-x="471" d="M98 -258q45 51 83 119.5t55 128.5q-47 4 -71 30.5t-24 67.5t29 74t70 33q47 0 74.5 -32t27.5 -79q0 -43 -12.5 -90t-33 -93t-46 -87t-51.5 -72h-101zM141 870q0 45 30 76t71 31q37 0 68.5 -30t31.5 -77q0 -43 -32 -73.5t-68 -30.5q-39 0 -70 27.5t-31 76.5z" />
<glyph unicode="&#x3c;" d="M119 635v88l940 541v-99l-856 -487l856 -483v-99z" />
<glyph unicode="=" d="M119 406v77h940v-77h-940zM119 866v78h940v-78h-940z" />
<glyph unicode="&#x3e;" d="M119 96v99l854 483l-854 487v99l940 -541v-88z" />
<glyph unicode="?" horiz-adv-x="890" d="M82 1335v82q156 76 330 76q180 0 278 -90t98 -256q0 -78 -27.5 -148.5t-72.5 -133t-103.5 -119t-121.5 -105.5l-117 -92v-160h-80v197l117 94q63 51 119.5 103.5t99.5 106.5t68.5 114.5t25.5 130.5q0 147 -72.5 212.5t-222.5 65.5q-80 0 -165.5 -21.5t-153.5 -56.5z M207 82q0 41 27.5 73.5t72.5 32.5q41 0 71 -32.5t30 -73.5t-31 -74q-31 -31 -70 -31q-41 0 -70.5 32t-29.5 73z" />
<glyph unicode="@" horiz-adv-x="1720" d="M102 344q0 170 58.5 314.5t163 249t251 162.5t322.5 58q145 0 276.5 -42t229.5 -127t156.5 -214t58.5 -301q0 -98 -25.5 -183t-75 -147.5t-123 -99.5t-169.5 -37q-66 0 -123.5 18.5t-89.5 65.5q-39 -39 -90.5 -61.5t-120.5 -22.5q-129 0 -191.5 85t-62.5 217 q0 94 29.5 171.5t84 134t131 87t169.5 30.5q37 0 77.5 -5t83.5 -19l-47 -488q-8 -78 32 -108.5t124 -30.5t140 35t91 91t50.5 126t15.5 141q0 145 -45 257t-128 189t-201 117t-263 40q-162 0 -291 -54.5t-220 -149.5t-139 -226.5t-48 -282.5q0 -158 50 -285t141 -216 t216 -137t277 -48q78 0 137 7t114 19v-77q-45 -10 -107.5 -18.5t-131.5 -8.5q-180 0 -325.5 53t-248 153.5t-158 244t-55.5 323.5zM637 276q0 -96 39 -158.5t139 -62.5q59 0 102.5 25.5t67.5 48.5l47 489q-16 4 -34.5 5.5t-30.5 1.5q-158 0 -244 -97.5t-86 -251.5z" />
<glyph unicode="A" horiz-adv-x="1118" d="M23 0l499 1477h74l500 -1477h-95l-147 446h-592l-147 -446h-92zM287 524h542l-270 822z" />
<glyph unicode="B" horiz-adv-x="1122" d="M186 0v1477h392q90 0 164.5 -28t128 -77t82 -117.5t28.5 -150.5q0 -123 -58.5 -215t-187.5 -131q129 -35 209 -127t80 -225q0 -201 -119 -303.5t-332 -102.5h-387zM276 84h281q174 0 273.5 74.5t99.5 240.5q0 76 -29 134.5t-78 98.5t-115.5 61.5t-142.5 21.5h-289v-631z M276 797h285q88 0 150.5 24.5t101.5 65.5t57.5 95t18.5 114q0 145 -90 221t-238 76h-285v-596z" />
<glyph unicode="C" horiz-adv-x="958" d="M109 735q0 145 26.5 281.5t88 243t160.5 170t245 63.5q137 0 262 -51v-92q-66 29 -127.5 44t-132.5 15q-125 0 -207 -57.5t-131 -151.5t-68.5 -214t-19.5 -245q0 -131 17.5 -252.5t63.5 -217t129 -153t216 -57.5q70 0 136.5 19.5t123.5 46.5v-90q-59 -29 -126 -44.5 t-144 -15.5q-154 0 -252.5 62.5t-156.5 167t-80.5 242t-22.5 286.5z" />
<glyph unicode="D" horiz-adv-x="1214" d="M186 0v1477h322q166 0 279.5 -54.5t184 -151.5t102.5 -233.5t32 -300.5q0 -160 -32 -295t-102.5 -233t-181 -153.5t-270.5 -55.5h-334zM276 84h263q133 0 224 52t146.5 141.5t79 208t23.5 251.5t-22.5 252t-77 209t-144.5 142.5t-223 52.5h-269v-1309z" />
<glyph unicode="E" horiz-adv-x="1005" d="M186 0v1477h695v-84h-605v-598h580v-82h-580v-629h627v-84h-717z" />
<glyph unicode="F" horiz-adv-x="968" d="M186 0v1477h719v-84h-629v-596h576v-82h-576v-715h-90z" />
<glyph unicode="G" horiz-adv-x="1150" d="M109 735q0 145 28.5 282.5t92 243t166 169t247.5 63.5q86 0 147.5 -13.5t127.5 -41.5v-90q-66 29 -131.5 45t-139.5 16q-129 0 -214 -58.5t-135 -152.5t-71.5 -214t-21.5 -243q0 -133 20.5 -254.5t70.5 -217t136 -152t219 -56.5q43 0 78 3.5t66.5 10.5t62.5 18t68 28v590 h88v-639q-78 -47 -170 -71t-209 -24q-150 0 -250 61.5t-161.5 166t-88 242t-26.5 288.5z" />
<glyph unicode="H" horiz-adv-x="1251" d="M186 0v1477h90v-680h699v680h90v-1477h-90v713h-699v-713h-90z" />
<glyph unicode="I" horiz-adv-x="462" d="M186 0v1477h90v-1477h-90z" />
<glyph unicode="J" horiz-adv-x="722" d="M18 -2v88q43 -12 81 -18.5t85 -6.5q156 0 217.5 71t61.5 230v1115h90v-1125q0 -190 -88 -282.5t-281 -92.5q-41 0 -83 5.5t-83 15.5z" />
<glyph unicode="K" horiz-adv-x="1110" d="M186 0v1477h90v-703h27l619 703h108l-637 -719l692 -758h-120l-656 721h-33v-721h-90z" />
<glyph unicode="L" horiz-adv-x="964" d="M186 0v1477h90v-1393h662v-84h-752z" />
<glyph unicode="M" horiz-adv-x="1591" d="M186 0v1477h123l479 -1198l504 1198h113v-1477h-90v1329l-486 -1149h-86l-467 1159v-1339h-90z" />
<glyph unicode="N" horiz-adv-x="1265" d="M186 0v1477h80l723 -1299v1299h90v-1477h-82l-721 1294v-1294h-90z" />
<glyph unicode="O" horiz-adv-x="1230" d="M109 735q0 147 24.5 284.5t82.5 243t155.5 168t242.5 62.5t242.5 -62.5t157 -168t84 -242.5t24.5 -285q0 -150 -24.5 -287t-83.5 -241q-57 -104 -155.5 -167t-244.5 -63q-143 0 -240.5 62.5t-155.5 167t-83.5 242t-25.5 286.5zM203 741q0 -119 15 -240.5t59.5 -220 t125 -160t211.5 -61.5q131 1 213 62t126 159.5t59.5 220.5t15.5 240q0 113 -15.5 232t-60.5 216t-126 159.5t-212 62.5t-211.5 -62.5t-125 -159.5t-59.5 -216t-15 -232z" />
<glyph unicode="P" horiz-adv-x="1060" d="M186 0v1477h336q106 0 193.5 -32t150 -90.5t97 -142.5t34.5 -190q0 -111 -35.5 -198t-101 -147.5t-157 -92t-201.5 -31.5h-226v-553h-90zM276 637h209q92 0 170 23.5t133.5 71.5t86 119t30.5 163q0 190 -109.5 284.5t-301.5 94.5h-218v-756z" />
<glyph unicode="Q" horiz-adv-x="1230" d="M109 735q0 147 24.5 284.5t82.5 243t155.5 168t242.5 62.5t242.5 -62.5t157 -168t84 -242.5t24.5 -285q0 -123 -16 -238.5t-55 -213t-102.5 -169t-155.5 -106.5l178 -291h-109l-162 269q-20 -4 -41.5 -6.5t-44.5 -2.5q-143 0 -240.5 62.5t-155.5 167t-83.5 242 t-25.5 286.5zM203 741q0 -119 15 -240.5t59.5 -220t125 -160t211.5 -61.5q131 1 213 62t126 159.5t59.5 220.5t15.5 240q0 113 -15.5 232t-60.5 216t-126 159.5t-212 62.5t-211.5 -62.5t-125 -159.5t-59.5 -216t-15 -232z" />
<glyph unicode="R" horiz-adv-x="1130" d="M186 0v1477h344q104 0 189.5 -28t146 -81t93 -130t32.5 -177q0 -182 -106.5 -290.5t-278.5 -133.5l467 -637h-115l-454 631h-228v-631h-90zM276 715h218q88 0 162.5 19.5t129 61.5t84 105.5t29.5 151.5q0 90 -27.5 154.5t-80 105.5t-126 60.5t-163.5 19.5h-226v-678z" />
<glyph unicode="S" horiz-adv-x="935" d="M80 55v95q94 -49 173 -69t169 -20q158 0 244 80t86 232q0 100 -47.5 165.5t-117 113.5t-151.5 88t-151.5 90.5t-116.5 120t-47 177.5q0 172 101.5 268.5t277.5 96.5q86 0 154.5 -17.5t133.5 -45.5v-95q-72 37 -142.5 55.5t-149.5 18.5q-131 0 -207 -71.5t-76 -198.5 q0 -94 47 -155.5t116.5 -108t152.5 -87t153 -93t117 -126t47 -184.5q0 -193 -106.5 -300.5t-299.5 -107.5q-205 0 -360 78z" />
<glyph unicode="T" horiz-adv-x="917" d="M16 1393v84h885v-84h-397v-1393h-90v1393h-398z" />
<glyph unicode="U" horiz-adv-x="1228" d="M168 428v1049h90v-1028q0 -193 84 -291.5t276 -98.5q178 0 266.5 97.5t88.5 271.5v1049h88v-1031q0 -227 -112.5 -348t-336.5 -121q-221 0 -332.5 116t-111.5 335z" />
<glyph unicode="V" horiz-adv-x="1132" d="M27 1477h96l442 -1368l449 1368h92l-494 -1477h-98z" />
<glyph unicode="W" horiz-adv-x="1595" d="M33 1477h92l321 -1321l304 1048h86l311 -1050l328 1323h88l-369 -1477h-88l-315 1065l-308 -1065h-86z" />
<glyph unicode="X" horiz-adv-x="1024" d="M25 0l432 768l-406 709h99l356 -633l352 633h92l-395 -705l444 -772h-98l-395 692l-387 -692h-94z" />
<glyph unicode="Y" horiz-adv-x="1040" d="M27 1477h98l391 -793l406 793h92l-457 -879v-598h-90v598z" />
<glyph unicode="Z" horiz-adv-x="1009" d="M74 0v74l743 1319h-694v84h799v-74l-748 -1319h756v-84h-856z" />
<glyph unicode="[" horiz-adv-x="548" d="M190 -252v1815h302v-76h-216v-1663h216v-76h-302z" />
<glyph unicode="\" horiz-adv-x="675" d="M31 1477h90l524 -1729h-90z" />
<glyph unicode="]" horiz-adv-x="548" d="M57 -176h215v1663h-215v76h301v-1815h-301v76z" />
<glyph unicode="^" d="M80 659l469 818h80l467 -818h-99l-409 734l-410 -734h-98z" />
<glyph unicode="_" horiz-adv-x="921" d="M0 -207h922v-69h-922v69z" />
<glyph unicode="`" d="M444 1550h86l142 -350h-82z" />
<glyph unicode="a" horiz-adv-x="909" d="M80 279q0 86 28.5 149.5t80 103t124 59t158.5 19.5h207v82q0 137 -55.5 195.5t-188.5 58.5q-115 0 -250 -43v84q61 18 133 28.5t129 10.5q166 0 242 -82t76 -248v-696h-70l-10 98q-55 -47 -131 -84t-166 -37q-141 0 -224 78t-83 224zM170 293q0 -238 238 -238 q86 0 150.5 34t119.5 83v365h-201q-135 0 -221 -55.5t-86 -188.5z" />
<glyph unicode="b" horiz-adv-x="1017" d="M162 61v1416h86v-603q63 66 148 109t182 43q96 0 163.5 -42t109.5 -112.5t61.5 -162t19.5 -187.5q0 -117 -21.5 -217t-70.5 -173t-130 -114t-200 -41q-82 0 -176 21.5t-172 62.5zM248 113q59 -31 127.5 -44.5t138.5 -13.5q94 0 157.5 36t101.5 99.5t53.5 146.5t15.5 179 q0 84 -14.5 162t-48.5 138.5t-92 96t-144 35.5q-80 0 -155 -44t-140 -116v-675z" />
<glyph unicode="c" horiz-adv-x="819" d="M86 506q0 100 25.5 193.5t79 166t135.5 116.5t194 44q70 0 122 -10t106 -31v-88q-53 27 -105.5 38t-114.5 11q-90 0 -156.5 -34.5t-109.5 -95t-64.5 -141.5t-21.5 -173q0 -102 20.5 -184t63.5 -139.5t111.5 -89.5t165.5 -32q63 0 115.5 14.5t111.5 41.5v-86 q-47 -23 -110.5 -36.5t-125.5 -13.5q-117 0 -199.5 37t-137 105.5t-80 167t-25.5 219.5z" />
<glyph unicode="d" horiz-adv-x="1017" d="M86 487q0 106 23.5 203.5t72.5 172.5t126 119t186 44q90 0 155.5 -30.5t120.5 -84.5v566h86v-1477h-68l-14 106q-53 -51 -129 -90t-180 -39q-100 0 -172 42t-118 113t-67.5 163t-21.5 192zM176 498q0 -88 15.5 -168t52.5 -141.5t97 -97.5t148 -36q86 0 152 35t129 90v651 q-66 59 -126 88t-138 29q-90 0 -152.5 -37t-102.5 -99t-57.5 -144t-17.5 -170z" />
<glyph unicode="e" horiz-adv-x="915" d="M86 502q0 102 22.5 197.5t70.5 168t122 115.5t176 43q94 0 161 -36t107.5 -97.5t60 -143t19.5 -174.5v-53t-2 -39h-649q2 -94 20.5 -172t60.5 -134t106.5 -88t158.5 -32q72 0 138.5 19.5t136.5 50.5v-84q-57 -29 -136 -47.5t-157 -18.5q-113 0 -192 40t-129 111 t-72.5 167t-22.5 207zM174 555h567q0 82 -11 153.5t-42 125t-84 84t-135 30.5q-76 0 -130 -32.5t-90 -88t-53.5 -126t-21.5 -146.5z" />
<glyph unicode="f" horiz-adv-x="634" d="M23 924v77h188v197q0 154 70.5 224.5t222.5 70.5q78 0 139 -16v-82q-35 10 -64.5 14t-72.5 4q-111 0 -160 -50t-49 -161v-201h324v-77h-324v-924h-86v924h-188z" />
<glyph unicode="g" horiz-adv-x="1015" d="M86 520q0 98 22.5 190.5t70.5 162t120 111.5t170 42q104 0 172 -34t133 -99l14 108h68v-1003q0 -190 -96 -275t-295 -85q-72 0 -152 10t-141 33v81q74 -25 141.5 -35t143.5 -10q147 0 230 58.5t83 206.5v184q-66 -55 -139.5 -90t-169.5 -35q-98 0 -170 39t-117 104.5 t-66.5 152.5t-21.5 183zM176 530q0 -88 16.5 -163.5t53.5 -131t95 -86t144 -30.5q82 0 151 34.5t134 92.5v569q-35 35 -66.5 59.5t-65.5 41t-72 24.5t-85 8q-82 0 -139 -34.5t-94 -93t-54.5 -133.5t-17.5 -157z" />
<glyph unicode="h" horiz-adv-x="1026" d="M162 0v1477h86v-623q68 74 151.5 123t184.5 49q135 0 211.5 -78t76.5 -213v-735h-86v702q0 117 -52 180.5t-169 63.5q-92 0 -174 -54t-143 -126v-766h-86z" />
<glyph unicode="i" horiz-adv-x="405" d="M139 1427q0 29 17.5 46.5t46.5 17.5t46 -17.5t17 -46.5t-17.5 -46t-45.5 -17q-29 0 -46.5 17.5t-17.5 45.5zM160 0v1001h86v-1001h-86z" />
<glyph unicode="j" horiz-adv-x="428" d="M-74 -272q23 -4 51.5 -7.5t51.5 -3.5q82 0 117.5 37t35.5 117v1130h86v-1116q0 -135 -57 -191t-174 -56q-29 0 -56.5 2t-54.5 10v78zM162 1427q0 29 17.5 46.5t45.5 17.5q29 0 46.5 -17.5t17.5 -46.5t-17.5 -46t-46.5 -17t-46 17.5t-17 45.5z" />
<glyph unicode="k" horiz-adv-x="890" d="M162 0v1477h86v-873h16l463 397h117l-492 -415l520 -586h-114l-490 557h-20v-557h-86z" />
<glyph unicode="l" horiz-adv-x="409" d="M162 0v1477h86v-1477h-86z" />
<glyph unicode="m" horiz-adv-x="1531" d="M160 0v1001h71l13 -149q61 76 138 125t169 49q96 0 159.5 -49t88.5 -135q61 78 140 131t177 53q123 0 192.5 -78t69.5 -213v-735h-86v702q0 117 -45 180.5t-149 63.5q-84 0 -156 -55t-131 -127q2 -8 2 -29v-735h-86v702q0 117 -45 180.5t-150 63.5q-84 0 -155.5 -55 t-130.5 -127v-764h-86z" />
<glyph unicode="n" horiz-adv-x="1024" d="M160 0v1001h71l13 -149q70 76 152.5 125t185.5 49q135 0 211.5 -78t76.5 -213v-735h-86v702q0 117 -52 180.5t-169 63.5q-92 0 -174 -54t-143 -126v-766h-86z" />
<glyph unicode="o" horiz-adv-x="987" d="M86 502q0 104 22.5 198.5t71.5 167t126 115.5t188 43q109 0 186.5 -43t126.5 -115.5t71.5 -167t22.5 -198.5q0 -106 -23.5 -201.5t-72.5 -167.5t-127 -114t-184 -42q-109 0 -186 42t-126 114t-72.5 167t-23.5 202zM176 506q0 -84 13.5 -164t49 -144.5t96 -103.5 t157.5 -39q98 0 159 39q63 39 98 103.5t48.5 144.5t13.5 164q0 78 -13.5 156.5t-48 142t-97 103.5t-160.5 40q-96 0 -158 -40t-96.5 -103.5t-48 -142t-13.5 -156.5z" />
<glyph unicode="p" horiz-adv-x="1015" d="M160 -348v1349h67l15 -131q66 66 145.5 111t177.5 45q100 0 170 -42t113 -111.5t62.5 -163t19.5 -193.5q0 -109 -22.5 -206t-69.5 -170.5t-124 -118t-184 -44.5q-84 0 -154.5 33t-129.5 92v-450h-86zM246 182q61 -57 128.5 -92t147.5 -35q92 0 152.5 36t97.5 98.5 t52.5 145.5t15.5 175q0 86 -14.5 165t-48.5 140.5t-90 97t-142 35.5q-90 0 -159 -44t-140 -109v-613z" />
<glyph unicode="q" horiz-adv-x="1015" d="M86 500q0 117 24.5 214t79 165.5t140.5 107.5t209 39q84 0 165.5 -20.5t151.5 -55.5v-1298h-86v452q-53 -51 -127 -89t-170 -38q-106 0 -180 42t-120 115t-66.5 167t-20.5 199zM176 508q0 -90 15.5 -172t52.5 -144.5t97 -99.5t153 -37q86 0 150.5 35t125.5 94v715 q-55 23 -115.5 36t-130.5 13q-184 0 -266 -117.5t-82 -322.5z" />
<glyph unicode="r" horiz-adv-x="626" d="M160 0v1001h71l13 -174q53 84 135 141.5t180 57.5h22.5t22.5 -4v-84q-10 2 -20.5 2h-20.5q-102 0 -180 -61.5t-137 -147.5v-731h-86z" />
<glyph unicode="s" horiz-adv-x="722" d="M74 37v84q72 -33 129 -48.5t129 -15.5q106 0 163.5 46.5t57.5 148.5q0 63 -34 105t-84 74t-109.5 59.5t-109.5 64.5t-84 89t-34 134q0 123 79 185.5t206 62.5q68 0 125 -13.5t110 -35.5v-84q-59 29 -113 42t-120 13q-86 0 -143.5 -38t-57.5 -124q0 -66 34 -107.5 t85 -74.5t110.5 -61.5t110.5 -65.5t85 -87t34 -128q0 -141 -82 -213t-223 -72q-68 0 -135.5 14.5t-128.5 45.5z" />
<glyph unicode="t" horiz-adv-x="681" d="M23 924v77h198v283h86v-283h297v-77h-297v-674q0 -111 37 -152t133 -41q47 0 85 8.5t79 24.5v-84q-39 -14 -87 -21.5t-89 -7.5q-129 0 -186.5 58.5t-57.5 187.5v701h-198z" />
<glyph unicode="u" horiz-adv-x="1024" d="M154 279v722h86v-690q0 -117 52 -185.5t169 -68.5q92 0 174 55.5t143 127.5v761h86v-1001h-71l-15 152q-68 -74 -151.5 -124.5t-184.5 -50.5q-135 0 -211.5 83t-76.5 219z" />
<glyph unicode="v" horiz-adv-x="868" d="M18 1001h97l319 -892l324 892h92l-375 -1001h-86z" />
<glyph unicode="w" horiz-adv-x="1355" d="M27 1001h90l272 -870l258 870h88l250 -866l258 866h86l-305 -1001h-82l-254 877l-258 -877h-84z" />
<glyph unicode="x" horiz-adv-x="851" d="M25 0l346 522l-324 479h100l273 -411l270 411h94l-315 -475l358 -526h-100l-307 461l-297 -461h-98z" />
<glyph unicode="y" horiz-adv-x="862" d="M6 -272q29 -8 57.5 -10.5t53.5 -2.5q57 0 96 16.5t66.5 47.5t48 76t41.5 100l22 61l-373 985h97l321 -880l316 880h92l-391 -1054q-25 -70 -51.5 -126.5t-63.5 -97t-89 -63t-128 -22.5q-29 0 -58.5 4t-56.5 10v76z" />
<glyph unicode="z" horiz-adv-x="796" d="M66 0v70l557 854h-527v77h625v-67l-559 -856h567v-78h-663z" />
<glyph unicode="{" horiz-adv-x="645" d="M80 678v76q92 0 129 19.5t37 94.5v500q0 195 205 195h145v-76h-139q-72 0 -98.5 -33t-26.5 -98v-475q0 -78 -25.5 -115t-83.5 -51q57 -12 83 -49t26 -115v-596q0 -66 26.5 -98.5t98.5 -32.5h139v-76h-145q-205 0 -205 195v620q0 76 -37 95.5t-129 19.5z" />
<glyph unicode="|" horiz-adv-x="561" d="M236 -328v1805h90v-1805h-90z" />
<glyph unicode="}" horiz-adv-x="645" d="M49 -176h139q72 0 98.5 32.5t26.5 98.5v596q0 78 24.5 114.5t84.5 49.5q-59 14 -84 51t-25 115v475q0 66 -26.5 98.5t-98.5 32.5h-139v76h146q205 0 204 -195v-500q0 -76 37 -95t129 -19v-76q-92 0 -129 -19.5t-37 -95.5v-620q0 -195 -204 -195h-146v76z" />
<glyph unicode="~" d="M152 565q0 53 10 102.5t33.5 86.5t63.5 59.5t99 22.5q68 0 122.5 -28t109.5 -73q49 -41 84 -67.5t60.5 -42t46 -22.5t38.5 -7q39 0 62.5 10t37 33t17.5 58.5t6 86.5h86q0 -57 -8 -108t-29.5 -89t-60.5 -59.5t-101 -21.5q-66 0 -116.5 30.5t-108.5 77.5q-49 41 -83 67 t-60.5 40t-48 19t-41.5 5q-80 0 -104.5 -44t-28.5 -136h-86z" />
<glyph unicode="&#xa1;" horiz-adv-x="512" d="M156 932q0 41 29.5 72.5t70.5 31.5q39 0 69.5 -31.5t30.5 -72.5q1 -41 -30 -74q-29 -33 -70 -33q-45 0 -72.5 33t-27.5 74zM211 -463l8 1092h76l8 -1092h-92z" />
<glyph unicode="&#xa2;" d="M274 649q0 92 22.5 181.5t70 160t118 117.5t168.5 57v248h82v-244q59 -4 106.5 -14t94.5 -27v-88q-53 27 -105.5 38.5t-113.5 11.5q-90 0 -156.5 -35t-109.5 -95.5t-64.5 -141.5t-21.5 -173q0 -102 20.5 -184t63.5 -139.5t111.5 -89t164.5 -31.5q63 0 115.5 14t111.5 41 v-86q-45 -23 -103 -35t-118 -14v-264h-82v266q-98 10 -168.5 52t-117 109.5t-68 160t-21.5 204.5z" />
<glyph unicode="&#xa3;" d="M78 0v84h196l105 659h-225v80h237l25 146q23 137 58.5 236.5t91 164t132 94t179.5 29.5q57 0 106 -11.5t84 -27.5v-86q-41 20 -93 30.5t-104 10.5q-61 0 -115.5 -11.5t-100.5 -56.5t-81.5 -132t-60.5 -238l-25 -148h465v-80h-479l-106 -659h692v-84h-981z" />
<glyph unicode="&#xa4;" d="M127 248l137 153q-41 66 -61.5 145t-20.5 165q0 84 19.5 162.5t62.5 144.5l-135 151l64 58l124 -144q49 47 116 74t157 27q88 0 154.5 -27t113.5 -72l127 142l64 -58l-136 -149q43 -66 63.5 -145.5t20.5 -163.5q0 -86 -20.5 -166t-63.5 -146l138 -151l-64 -58l-129 144 q-47 -47 -114.5 -72.5t-153.5 -25.5q-88 0 -155.5 26.5t-115.5 73.5l-129 -146zM274 715q0 -68 13.5 -138.5t48.5 -129t95.5 -95.5t156.5 -37q99 0 160 37t97 95.5t48 129t12 138.5q0 61 -12 129.5t-48 126t-97.5 95.5t-159.5 38q-96 0 -157.5 -38t-96.5 -95.5t-47.5 -126 t-12.5 -129.5z" />
<glyph unicode="&#xa5;" d="M96 1477h99l391 -711l405 711h92l-411 -719h272v-80h-317v-246h317v-80h-317v-352h-90v352h-324v80h324v246h-324v80h281z" />
<glyph unicode="&#xa6;" horiz-adv-x="561" d="M236 -328v713h90v-713h-90zM236 784v693h90v-693h-90z" />
<glyph unicode="&#xa7;" horiz-adv-x="946" d="M133 670q0 92 49 170t137 143q-49 41 -84.5 96.5t-35.5 128.5q0 141 81.5 213t223.5 72q78 0 140.5 -15.5t123.5 -43.5v-84q-72 33 -129 48t-129 15q-106 0 -163.5 -46t-57.5 -148q0 -70 44 -121t97 -88l199 -144q82 -57 133 -124.5t51 -170.5q0 -92 -50 -170.5 t-136 -142.5q47 -41 84 -96.5t37 -128.5q0 -141 -82 -213t-224 -72q-162 0 -284 62v84q72 -35 135 -50.5t143 -15.5q106 0 163.5 46t57.5 149q0 70 -44 121t-97 87l-199 144q-82 57 -133 124.5t-51 170.5zM219 678q0 -66 34 -117t103 -102l207 -154q66 53 115 116.5 t49 141.5q0 66 -34 117t-103 102l-209 152q-66 -53 -114 -116.5t-48 -139.5z" />
<glyph unicode="&#xa8;" horiz-adv-x="1024" d="M276 1413q0 29 17.5 46.5t46.5 17.5t46 -17.5t17 -46.5t-17 -46t-46 -17t-46.5 17t-17.5 46zM621 1413q0 29 17 46.5t46 17.5t46.5 -17.5t17.5 -46.5t-17.5 -46t-46.5 -17t-46 17t-17 46z" />
<glyph unicode="&#xa9;" horiz-adv-x="1730" d="M102 729q0 158 59.5 297t163 242.5t243 164t296.5 60.5q158 0 297 -60.5t242.5 -164t164 -242.5t60.5 -297t-61 -297q-59 -139 -163 -242.5t-243 -163t-297 -59.5t-297 59.5t-242.5 163t-163 242.5t-59.5 297zM186 729q0 -141 53.5 -264t145.5 -215t215 -145.5t264 -53.5 t264 53q125 53 217.5 145.5t145.5 215.5t53 264t-53 265t-145.5 216.5t-216 145.5t-265.5 53q-141 0 -264 -53t-215 -145.5t-145.5 -216.5t-53.5 -265zM526 754q0 80 20.5 154.5t63.5 133t109.5 93t157.5 34.5q35 0 61.5 -3t50 -8t46 -12t48.5 -18v-88q-53 27 -94 38.5 t-104 11.5q-70 0 -120 -27t-83 -73t-49.5 -108.5t-16.5 -131.5q0 -160 63.5 -254.5t211.5 -94.5q63 0 112.5 11.5t96.5 36.5v-82q-94 -45 -217 -45q-94 0 -162 29.5t-111 86t-63.5 136t-20.5 180.5z" />
<glyph unicode="&#xaa;" horiz-adv-x="782" d="M92 893q0 70 24.5 123t67.5 88t102.5 52.5t129.5 17.5h159v47q0 111 -49 153.5t-151 42.5q-53 0 -105.5 -11t-99.5 -28v78q47 16 104.5 26.5t116.5 10.5q147 0 207.5 -76t60.5 -198v-560h-59l-14 72q-35 -31 -102.5 -57.5t-133.5 -26.5q-119 0 -188.5 64.5t-69.5 181.5z M180 897q0 -72 42 -122t140 -50q66 0 119.5 23.5t93.5 56.5v293h-167q-100 0 -164 -48.5t-64 -152.5z" />
<glyph unicode="&#xab;" horiz-adv-x="880" d="M92 532v39l246 336h98l-262 -354l262 -354h-100zM444 532v39l246 336h98l-262 -354l262 -354h-100z" />
<glyph unicode="&#xac;" d="M152 653v78h882v-379h-78v301h-804z" />
<glyph unicode="&#xad;" horiz-adv-x="888" d="M133 561v78h623v-78h-623z" />
<glyph unicode="&#xae;" horiz-adv-x="1730" d="M102 729q0 158 59.5 297t163 242.5t243 164t296.5 60.5q158 0 297 -60.5t242.5 -164t164 -242.5t60.5 -297t-61 -297q-59 -139 -163 -242.5t-243 -163t-297 -59.5t-297 59.5t-242.5 163t-163 242.5t-59.5 297zM186 729q0 -141 53.5 -264t145.5 -215t215 -145.5t264 -53.5 t264 53q125 53 217.5 145.5t145.5 215.5t53 264t-53 265t-145.5 216.5t-216 145.5t-265.5 53q-141 0 -264 -53t-215 -145.5t-145.5 -216.5t-53.5 -265zM639 354v793h256q115 0 181.5 -57.5t66.5 -163.5q0 -98 -54.5 -162t-146.5 -80l242 -330h-101l-233 326h-127v-326h-84z M723 760h115q109 0 164 34.5t55 118.5q0 88 -52.5 121t-162.5 33h-119v-307z" />
<glyph unicode="&#xaf;" horiz-adv-x="1024" d="M186 1327v76h652v-76h-652z" />
<glyph unicode="&#xb0;" horiz-adv-x="690" d="M66 1210q0 55 19 106.5t55 90.5t88.5 62.5t117.5 23.5q61 0 112.5 -22.5t88.5 -60.5t57.5 -90t20.5 -110q0 -55 -19.5 -105t-56.5 -87q-35 -37 -87 -59.5t-116 -22.5q-129 0 -204.5 78t-75.5 196zM154 1210q0 -82 49 -142t143 -60q86 0 138.5 57t52.5 145q0 37 -11.5 75 t-35 67.5t-59.5 48t-85 18.5q-92 0 -142 -60.5t-50 -148.5z" />
<glyph unicode="&#xb1;" d="M119 2v78h940v-78h-940zM119 776v78h426v422h90v-422h424v-78h-424v-422h-90v422h-426z" />
<glyph unicode="&#xb2;" horiz-adv-x="819" d="M119 588v66q72 63 146.5 139t129.5 135q72 78 117 149.5t45 155.5q0 86 -45 132t-143 46q-51 0 -109.5 -15t-112.5 -40v78q47 23 106.5 38t129.5 15q123 0 190.5 -68.5t67.5 -183.5q0 -86 -37 -155.5t-94 -141.5q-53 -63 -128 -137t-153 -139h441v-74h-551z" />
<glyph unicode="&#xb3;" horiz-adv-x="819" d="M137 613v77q59 -23 113.5 -32t99.5 -9q51 0 97.5 11.5t80 36t54 61.5t20.5 88q0 72 -56.5 120t-172.5 48h-146v72h142q98 0 159.5 47t61.5 125q0 45 -17.5 74.5t-47 48t-69.5 25.5t-83 7q-47 0 -93.5 -8t-105.5 -29v74q45 16 100.5 26.5t120.5 10.5q53 0 103.5 -12.5 t88.5 -39t61.5 -68.5t23.5 -99q0 -84 -47 -136t-115 -75q88 -25 131 -84t43 -137q0 -129 -89 -194.5t-241 -65.5q-51 0 -113.5 10t-103.5 27z" />
<glyph unicode="&#xb4;" d="M506 1200l141 350h86l-145 -350h-82z" />
<glyph unicode="&#xb5;" horiz-adv-x="1030" d="M160 -348v1349h86v-690q0 -117 52 -185.5t169 -68.5q92 0 174 55.5t143 127.5v761h86v-1001h-71l-15 152q-68 -74 -151.5 -124.5t-183.5 -50.5q-66 0 -116 25t-87 68v-418h-86z" />
<glyph unicode="&#xb6;" horiz-adv-x="1251" d="M82 1038q0 98 31.5 179t92 138.5t145.5 89.5t192 32h657v-91h-211v-1638h-88v1638h-264v-1638h-88v834q-104 2 -190.5 34.5t-147.5 92t-95 143.5t-34 186z" />
<glyph unicode="&#xb7;" horiz-adv-x="466" d="M135 672q0 45 30 76t71 31q37 0 68.5 -30t31.5 -77q0 -43 -32 -73.5t-68 -30.5q-39 0 -70 27.5t-31 76.5z" />
<glyph unicode="&#xb8;" horiz-adv-x="1024" d="M340 -381q20 -8 51 -14t72 -6q61 0 96 25.5t35 76.5q0 37 -16.5 62.5t-41 42t-53 25.5t-53.5 13l41 172l70 -2l-29 -116q72 -23 118 -73t46 -122q0 -94 -58.5 -135t-150.5 -41q-45 0 -78 8t-49 14v70z" />
<glyph unicode="&#xb9;" horiz-adv-x="819" d="M147 1344v75l238 58h78v-813h225v-76h-536v76h225v731z" />
<glyph unicode="&#xba;" horiz-adv-x="823" d="M72 1071q0 80 18.5 156t58 135t104 95t159.5 36q94 0 159.5 -33t105.5 -89t57.5 -134t17.5 -166q0 -84 -17.5 -161t-58.5 -136q-39 -57 -103.5 -92t-160.5 -35q-94 0 -160 34t-106 91t-57 134t-17 165zM160 1071q0 -59 10 -121.5t39 -113t79 -83t128 -32.5t127 29 q49 31 75.5 80t36 111.5t9.5 129.5q0 61 -7.5 123.5t-34 112t-75.5 80t-131 30.5q-74 0 -123 -30.5t-79 -81t-42 -111.5t-12 -123z" />
<glyph unicode="&#xbb;" horiz-adv-x="880" d="M92 199l262 354l-262 354h98l246 -336v-39l-243 -333h-101zM444 199l262 354l-262 354h98l246 -336v-39l-243 -333h-101z" />
<glyph unicode="&#xbc;" horiz-adv-x="2088" d="M165 1344v75l238 58h78v-813h225v-76h-536v76h225v731zM592 0l790 1477h89l-783 -1477h-96zM1295 246v71l418 572h98v-572h131v-71h-131v-246h-80v246h-436zM1379 317h352v478z" />
<glyph unicode="&#xbd;" horiz-adv-x="2088" d="M184 1344v75l238 58h78v-813h225v-76h-536v76h225v731zM612 0l790 1477h89l-783 -1477h-96zM1415 0v66q72 63 146.5 139t129.5 135q72 78 117 149.5t45 155.5q0 86 -45 132t-143 46q-51 0 -109.5 -15t-112.5 -40v78q47 23 106.5 38t129.5 15q123 0 190.5 -68.5 t67.5 -183.5q0 -86 -37 -155.5t-94 -141.5q-53 -63 -128 -137t-153 -139h441v-74h-551z" />
<glyph unicode="&#xbe;" horiz-adv-x="2088" d="M174 613v77q59 -23 113.5 -32t99.5 -9q51 0 97.5 11.5t80 36t54 61.5t20.5 88q0 72 -56.5 120t-172.5 48h-146v72h142q98 0 159.5 47t61.5 125q0 45 -17.5 74.5t-47 48t-69.5 25.5t-83 7q-47 0 -93.5 -8t-105.5 -29v74q45 16 100.5 26.5t120.5 10.5q53 0 103.5 -12.5 t88.5 -39t61.5 -68.5t23.5 -99q0 -84 -47 -136t-115 -75q88 -25 131 -84t43 -137q0 -129 -89 -194.5t-241 -65.5q-51 0 -113.5 10t-103.5 27zM651 0l790 1477h89l-783 -1477h-96zM1350 246v71l418 572h98v-572h131v-71h-131v-246h-80v246h-436zM1434 317h352v478z" />
<glyph unicode="&#xbf;" horiz-adv-x="890" d="M102 -133q0 78 28 148.5t73 133t103.5 119t121.5 105.5l117 92v160h80v-197l-117 -94q-63 -53 -119.5 -104.5t-99.5 -105.5t-68.5 -114.5t-25.5 -130.5q0 -147 72.5 -212.5t221.5 -65.5q80 0 166 21.5t154 55.5v-81q-156 -76 -330 -76q-180 0 -278.5 90t-98.5 256z M483 932q0 41 31 72.5t70 31.5q41 0 70.5 -31.5t29.5 -72.5t-29 -74q-27 -33 -71 -33q-41 0 -71 33t-30 74z" />
<glyph unicode="&#xc0;" horiz-adv-x="1118" d="M23 0l499 1477h74l500 -1477h-95l-147 446h-592l-147 -446h-92zM287 524h542l-270 822zM369 1913h86l141 -287h-71z" />
<glyph unicode="&#xc1;" horiz-adv-x="1118" d="M23 0l499 1477h74l500 -1477h-95l-147 446h-592l-147 -446h-92zM287 524h542l-270 822zM510 1626l141 287h86l-155 -287h-72z" />
<glyph unicode="&#xc2;" horiz-adv-x="1118" d="M23 0l499 1477h74l500 -1477h-95l-147 446h-592l-147 -446h-92zM287 524h542l-270 822zM332 1626l207 287h43l206 -287h-92l-137 197l-135 -197h-92z" />
<glyph unicode="&#xc3;" horiz-adv-x="1118" d="M23 0l499 1477h74l500 -1477h-95l-147 446h-592l-147 -446h-92zM209 1688q0 96 35 161.5t125 65.5q59 0 103 -26.5t97 -67.5l33 -27q35 -29 62.5 -45t64.5 -16q47 0 66.5 36.5t19.5 112.5h78q0 -98 -35 -162.5t-125 -64.5q-57 0 -102 25.5t-82 54.5l-49 39 q-37 29 -66.5 46t-60.5 17q-53 0 -69.5 -45t-16.5 -104h-78zM287 524h542l-270 822z" />
<glyph unicode="&#xc4;" horiz-adv-x="1118" d="M23 0l499 1477h74l500 -1477h-95l-147 446h-592l-147 -446h-92zM287 524h542l-270 822zM323 1753q0 29 17.5 46.5t46.5 17.5t46 -17.5t17 -46.5t-17 -46t-46 -17t-46.5 17t-17.5 46zM668 1753q0 29 17 46.5t46 17.5t46.5 -17.5t17.5 -46.5t-17.5 -46t-46.5 -17t-46 17 t-17 46z" />
<glyph unicode="&#xc5;" horiz-adv-x="1118" d="M23 0l499 1477h74l500 -1477h-95l-147 446h-592l-147 -446h-92zM287 524h542l-270 822zM330 1816q0 45 16 88t46 75t73 51.5t96 19.5q51 0 93 -18.5t73 -50t47 -74.5t16 -91q0 -45 -16 -85.5t-47 -71.5q-29 -31 -72 -49.5t-94 -18.5q-106 0 -168.5 63.5t-62.5 161.5z M409 1816q0 -66 40 -111.5t112 -45.5q63 0 106.5 46t43.5 111q0 29 -9.5 57.5t-28 52.5t-46 38t-66.5 14q-70 0 -111 -47t-41 -115z" />
<glyph unicode="&#xc6;" horiz-adv-x="1689" d="M8 0l807 1477h750v-84h-604v-598h579v-82h-579v-629h626v-84h-717v446h-518l-241 -446h-103zM395 524h475v873z" />
<glyph unicode="&#xc7;" horiz-adv-x="958" d="M109 735q0 145 26.5 281.5t88 243t160.5 170t245 63.5q137 0 262 -51v-92q-66 29 -127.5 44t-132.5 15q-125 0 -207 -57.5t-131 -151.5t-68.5 -214t-19.5 -245q0 -131 17.5 -252.5t63.5 -217t129 -153t216 -57.5q70 0 136.5 19.5t123.5 46.5v-90q-59 -29 -127 -44.5 t-146 -15.5l-18 -79q72 -23 118 -73t46 -122q0 -94 -58.5 -135t-150.5 -41q-45 0 -78 8t-49 14v70q20 -8 51 -14t72 -6q61 0 96 25.5t35 76.5q0 37 -16.5 62.5t-41 42t-53 25.5t-53.5 13l33 138q-131 14 -217 80.5t-136.5 170t-69.5 232.5t-19 270z" />
<glyph unicode="&#xc8;" horiz-adv-x="1005" d="M186 0v1477h695v-84h-605v-598h580v-82h-580v-629h627v-84h-717zM387 1913h86l141 -287h-71z" />
<glyph unicode="&#xc9;" horiz-adv-x="1005" d="M186 0v1477h695v-84h-605v-598h580v-82h-580v-629h627v-84h-717zM477 1626l141 287h86l-155 -287h-72z" />
<glyph unicode="&#xca;" horiz-adv-x="1005" d="M186 0v1477h695v-84h-605v-598h580v-82h-580v-629h627v-84h-717zM320 1626l207 287h43l206 -287h-92l-137 197l-135 -197h-92z" />
<glyph unicode="&#xcb;" horiz-adv-x="1005" d="M186 0v1477h695v-84h-605v-598h580v-82h-580v-629h627v-84h-717zM286 1753q0 29 17.5 46.5t46.5 17.5t46 -17.5t17 -46.5t-17 -46t-46 -17t-46.5 17t-17.5 46zM631 1753q0 29 17 46.5t46 17.5t46.5 -17.5t17.5 -46.5t-17.5 -46t-46.5 -17t-46 17t-17 46z" />
<glyph unicode="&#xcc;" horiz-adv-x="462" d="M51 1913h86l141 -287h-71zM186 0v1477h90v-1477h-90z" />
<glyph unicode="&#xcd;" horiz-adv-x="462" d="M186 0v1477h90v-1477h-90zM190 1626l141 287h86l-155 -287h-72z" />
<glyph unicode="&#xce;" horiz-adv-x="462" d="M6 1626l207 287h43l206 -287h-92l-137 197l-135 -197h-92zM186 0v1477h90v-1477h-90z" />
<glyph unicode="&#xcf;" horiz-adv-x="462" d="M-3 1753q0 29 17.5 46.5t46.5 17.5t46 -17.5t17 -46.5t-17 -46t-46 -17t-46.5 17t-17.5 46zM186 0v1477h90v-1477h-90zM342 1753q0 29 17 46.5t46 17.5t46.5 -17.5t17.5 -46.5t-17.5 -46t-46.5 -17t-46 17t-17 46z" />
<glyph unicode="&#xd0;" horiz-adv-x="1249" d="M29 715v71h192v691h322q166 0 279.5 -54.5t184 -151.5t102.5 -233.5t32 -300.5q0 -160 -32 -295t-102.5 -233t-181 -153.5t-270.5 -55.5h-334v715h-192zM311 84h262q133 0 224.5 52t146.5 141.5t79 208t24 251.5t-23 252t-77 209t-144 142.5t-223 52.5h-269v-607h355v-71 h-355v-631z" />
<glyph unicode="&#xd1;" horiz-adv-x="1265" d="M186 0v1477h80l723 -1299v1299h90v-1477h-82l-721 1294v-1294h-90zM293 1688q0 96 35 161.5t125 65.5q59 0 103 -26.5t97 -67.5l33 -27q35 -29 62.5 -45t64.5 -16q47 0 66.5 36.5t19.5 112.5h78q0 -98 -35 -162.5t-125 -64.5q-57 0 -102 25.5t-82 54.5l-49 39 q-37 29 -66.5 46t-60.5 17q-53 0 -69.5 -45t-16.5 -104h-78z" />
<glyph unicode="&#xd2;" horiz-adv-x="1230" d="M109 735q0 147 24.5 284.5t82.5 243t155.5 168t242.5 62.5t242.5 -62.5t157 -168t84 -242.5t24.5 -285q0 -150 -24.5 -287t-83.5 -241q-57 -104 -155.5 -167t-244.5 -63q-143 0 -240.5 62.5t-155.5 167t-83.5 242t-25.5 286.5zM203 741q0 -119 15 -240.5t59.5 -220 t125 -160t211.5 -61.5q131 1 213 62t126 159.5t59.5 220.5t15.5 240q0 113 -15.5 232t-60.5 216t-126 159.5t-212 62.5t-211.5 -62.5t-125 -159.5t-59.5 -216t-15 -232zM467 1913h86l141 -287h-71z" />
<glyph unicode="&#xd3;" horiz-adv-x="1230" d="M109 735q0 147 24.5 284.5t82.5 243t155.5 168t242.5 62.5t242.5 -62.5t157 -168t84 -242.5t24.5 -285q0 -150 -24.5 -287t-83.5 -241q-57 -104 -155.5 -167t-244.5 -63q-143 0 -240.5 62.5t-155.5 167t-83.5 242t-25.5 286.5zM203 741q0 -119 15 -240.5t59.5 -220 t125 -160t211.5 -61.5q131 1 213 62t126 159.5t59.5 220.5t15.5 240q0 113 -15.5 232t-60.5 216t-126 159.5t-212 62.5t-211.5 -62.5t-125 -159.5t-59.5 -216t-15 -232zM557 1626l141 287h86l-155 -287h-72z" />
<glyph unicode="&#xd4;" horiz-adv-x="1230" d="M109 735q0 147 24.5 284.5t82.5 243t155.5 168t242.5 62.5t242.5 -62.5t157 -168t84 -242.5t24.5 -285q0 -150 -24.5 -287t-83.5 -241q-57 -104 -155.5 -167t-244.5 -63q-143 0 -240.5 62.5t-155.5 167t-83.5 242t-25.5 286.5zM203 741q0 -119 15 -240.5t59.5 -220 t125 -160t211.5 -61.5q131 1 213 62t126 159.5t59.5 220.5t15.5 240q0 113 -15.5 232t-60.5 216t-126 159.5t-212 62.5t-211.5 -62.5t-125 -159.5t-59.5 -216t-15 -232zM387 1626l207 287h43l206 -287h-92l-137 197l-135 -197h-92z" />
<glyph unicode="&#xd5;" horiz-adv-x="1230" d="M109 735q0 147 24.5 284.5t82.5 243t155.5 168t242.5 62.5t242.5 -62.5t157 -168t84 -242.5t24.5 -285q0 -150 -24.5 -287t-83.5 -241q-57 -104 -155.5 -167t-244.5 -63q-143 0 -240.5 62.5t-155.5 167t-83.5 242t-25.5 286.5zM203 741q0 -119 15 -240.5t59.5 -220 t125 -160t211.5 -61.5q131 1 213 62t126 159.5t59.5 220.5t15.5 240q0 113 -15.5 232t-60.5 216t-126 159.5t-212 62.5t-211.5 -62.5t-125 -159.5t-59.5 -216t-15 -232zM281 1688q0 96 35 161.5t125 65.5q59 0 103 -26.5t97 -67.5l33 -27q35 -29 62.5 -45t64.5 -16 q47 0 66.5 36.5t19.5 112.5h78q0 -98 -35 -162.5t-125 -64.5q-57 0 -102 25.5t-82 54.5l-49 39q-37 29 -66.5 46t-60.5 17q-53 0 -69.5 -45t-16.5 -104h-78z" />
<glyph unicode="&#xd6;" horiz-adv-x="1230" d="M109 735q0 147 24.5 284.5t82.5 243t155.5 168t242.5 62.5t242.5 -62.5t157 -168t84 -242.5t24.5 -285q0 -150 -24.5 -287t-83.5 -241q-57 -104 -155.5 -167t-244.5 -63q-143 0 -240.5 62.5t-155.5 167t-83.5 242t-25.5 286.5zM203 741q0 -119 15 -240.5t59.5 -220 t125 -160t211.5 -61.5q131 1 213 62t126 159.5t59.5 220.5t15.5 240q0 113 -15.5 232t-60.5 216t-126 159.5t-212 62.5t-211.5 -62.5t-125 -159.5t-59.5 -216t-15 -232zM378 1753q0 29 17.5 46.5t46.5 17.5t46 -17.5t17 -46.5t-17 -46t-46 -17t-46.5 17t-17.5 46zM723 1753 q0 29 17 46.5t46 17.5t46.5 -17.5t17.5 -46.5t-17.5 -46t-46.5 -17t-46 17t-17 46z" />
<glyph unicode="&#xd7;" d="M178 326l352 352l-350 350l64 64l350 -351l348 351l55 -56l-348 -350l352 -350l-65 -64l-350 351l-353 -353z" />
<glyph unicode="&#xd8;" horiz-adv-x="1230" d="M109 735q0 147 24.5 284.5t82.5 243t155.5 168t242.5 62.5q86 0 155 -23.5t122 -64.5l102 211h86l-127 -266q94 -106 132 -269t38 -346q0 -150 -24.5 -287t-83 -241.5t-156.5 -167t-244 -62.5q-168 0 -278 89l-98 -205h-86l124 260q-92 106 -129.5 268t-37.5 346z M203 741q0 -72 5 -144.5t17.5 -142t35 -132t56.5 -113.5l537 1116q-45 41 -103.5 63.5t-136.5 22.5q-131 0 -211.5 -62.5t-125 -159.5t-59.5 -216t-15 -232zM373 143q45 -41 104.5 -62.5t136.5 -21.5q131 0 213 61.5t126 160t59.5 220.5t15.5 240q0 68 -5 138.5t-18.5 139 t-36 131t-59.5 114.5z" />
<glyph unicode="&#xd9;" horiz-adv-x="1228" d="M168 428v1049h90v-1028q0 -193 84 -291.5t276 -98.5q178 0 266.5 97.5t88.5 271.5v1049h88v-1031q0 -227 -112.5 -348t-336.5 -121q-221 0 -332.5 116t-111.5 335zM469 1913h86l141 -287h-71z" />
<glyph unicode="&#xda;" horiz-adv-x="1228" d="M168 428v1049h90v-1028q0 -193 84 -291.5t276 -98.5q178 0 266.5 97.5t88.5 271.5v1049h88v-1031q0 -227 -112.5 -348t-336.5 -121q-221 0 -332.5 116t-111.5 335zM575 1626l141 287h86l-155 -287h-72z" />
<glyph unicode="&#xdb;" horiz-adv-x="1228" d="M168 428v1049h90v-1028q0 -193 84 -291.5t276 -98.5q178 0 266.5 97.5t88.5 271.5v1049h88v-1031q0 -227 -112.5 -348t-336.5 -121q-221 0 -332.5 116t-111.5 335zM385 1626l207 287h43l206 -287h-92l-137 197l-135 -197h-92z" />
<glyph unicode="&#xdc;" horiz-adv-x="1228" d="M168 428v1049h90v-1028q0 -193 84 -291.5t276 -98.5q178 0 266.5 97.5t88.5 271.5v1049h88v-1031q0 -227 -112.5 -348t-336.5 -121q-221 0 -332.5 116t-111.5 335zM378 1753q0 29 17.5 46.5t46.5 17.5t46 -17.5t17 -46.5t-17 -46t-46 -17t-46.5 17t-17.5 46zM723 1753 q0 29 17 46.5t46 17.5t46.5 -17.5t17.5 -46.5t-17.5 -46t-46.5 -17t-46 17t-17 46z" />
<glyph unicode="&#xdd;" horiz-adv-x="1040" d="M27 1477h98l391 -793l406 793h92l-457 -879v-598h-90v598zM483 1626l141 287h86l-155 -287h-72z" />
<glyph unicode="&#xde;" horiz-adv-x="1060" d="M186 0v1477h90v-209h246q106 0 193.5 -32t150 -90.5t97 -142t34.5 -190.5q0 -111 -35.5 -198t-101 -147t-157 -92t-201.5 -32h-226v-344h-90zM276 428h209q92 0 170 23.5t133.5 71.5t86 119t30.5 163q0 190 -109.5 284.5t-301.5 94.5h-218v-756z" />
<glyph unicode="&#xdf;" horiz-adv-x="1019" d="M145 0v1061q0 432 334 432q82 0 147.5 -27.5t110.5 -77t68.5 -118t23.5 -148.5q0 -225 -176 -321q154 -49 219.5 -164t65.5 -258q0 -188 -97.5 -295t-271.5 -107q-51 0 -92 7.5t-78 19.5v82q35 -16 79 -23.5t87 -7.5q150 0 216.5 90.5t66.5 235.5q0 188 -101.5 282.5 t-265.5 96.5h-59v71h49q74 0 124 23t83 62.5t47 94t14 115.5q0 131 -69.5 210t-196.5 79q-121 0 -181.5 -84t-60.5 -284v-1047h-86z" />
<glyph unicode="&#xe0;" horiz-adv-x="909" d="M80 279q0 86 28.5 149.5t80 103t124 59t158.5 19.5h207v82q0 137 -55.5 195.5t-188.5 58.5q-115 0 -250 -43v84q61 18 133 28.5t129 10.5q166 0 242 -82t76 -248v-696h-70l-10 98q-55 -47 -131 -84t-166 -37q-141 0 -224 78t-83 224zM170 293q0 -238 238 -238 q86 0 150.5 34t119.5 83v365h-201q-135 0 -221 -55.5t-86 -188.5zM294 1550h86l142 -350h-82z" />
<glyph unicode="&#xe1;" horiz-adv-x="909" d="M80 279q0 86 28.5 149.5t80 103t124 59t158.5 19.5h207v82q0 137 -55.5 195.5t-188.5 58.5q-115 0 -250 -43v84q61 18 133 28.5t129 10.5q166 0 242 -82t76 -248v-696h-70l-10 98q-55 -47 -131 -84t-166 -37q-141 0 -224 78t-83 224zM170 293q0 -238 238 -238 q86 0 150.5 34t119.5 83v365h-201q-135 0 -221 -55.5t-86 -188.5zM395 1200l141 350h86l-145 -350h-82z" />
<glyph unicode="&#xe2;" horiz-adv-x="909" d="M80 279q0 86 28.5 149.5t80 103t124 59t158.5 19.5h207v82q0 137 -55.5 195.5t-188.5 58.5q-115 0 -250 -43v84q61 18 133 28.5t129 10.5q166 0 242 -82t76 -248v-696h-70l-10 98q-55 -47 -131 -84t-166 -37q-141 0 -224 78t-83 224zM152 1200l276 350h43l277 -350h-90 l-209 262l-207 -262h-90zM170 293q0 -238 238 -238q86 0 150.5 34t119.5 83v365h-201q-135 0 -221 -55.5t-86 -188.5z" />
<glyph unicode="&#xe3;" horiz-adv-x="909" d="M80 279q0 86 28.5 149.5t80 103t124 59t158.5 19.5h207v82q0 137 -55.5 195.5t-188.5 58.5q-115 0 -250 -43v84q61 18 133 28.5t129 10.5q166 0 242 -82t76 -248v-696h-70l-10 98q-55 -47 -131 -84t-166 -37q-141 0 -224 78t-83 224zM107 1266q0 96 35 161.5t125 65.5 q59 0 103 -26.5t97 -67.5l33 -27q35 -29 62.5 -45t64.5 -16q47 0 66.5 36.5t19.5 112.5h78q0 -98 -35 -162.5t-125 -64.5q-57 0 -102 25.5t-82 54.5l-49 39q-37 29 -66.5 46t-60.5 17q-53 0 -69.5 -45t-16.5 -104h-78zM170 293q0 -238 238 -238q86 0 150.5 34t119.5 83v365 h-201q-135 0 -221 -55.5t-86 -188.5z" />
<glyph unicode="&#xe4;" horiz-adv-x="909" d="M80 279q0 86 28.5 149.5t80 103t124 59t158.5 19.5h207v82q0 137 -55.5 195.5t-188.5 58.5q-115 0 -250 -43v84q61 18 133 28.5t129 10.5q166 0 242 -82t76 -248v-696h-70l-10 98q-55 -47 -131 -84t-166 -37q-141 0 -224 78t-83 224zM170 293q0 -238 238 -238 q86 0 150.5 34t119.5 83v365h-201q-135 0 -221 -55.5t-86 -188.5zM215 1413q0 29 17.5 46.5t46.5 17.5t46 -17.5t17 -46.5t-17 -46t-46 -17t-46.5 17t-17.5 46zM560 1413q0 29 17 46.5t46 17.5t46.5 -17.5t17.5 -46.5t-17.5 -46t-46.5 -17t-46 17t-17 46z" />
<glyph unicode="&#xe5;" horiz-adv-x="909" d="M80 279q0 86 28.5 149.5t80 103t124 59t158.5 19.5h207v82q0 137 -55.5 195.5t-188.5 58.5q-115 0 -250 -43v84q61 18 133 28.5t129 10.5q166 0 242 -82t76 -248v-696h-70l-10 98q-55 -47 -131 -84t-166 -37q-141 0 -224 78t-83 224zM170 293q0 -238 238 -238 q86 0 150.5 34t119.5 83v365h-201q-135 0 -221 -55.5t-86 -188.5zM226 1425q0 45 16 88t46 75t73 51.5t96 19.5q51 0 93 -18.5t73 -50t47 -74.5t16 -91q0 -45 -16 -85.5t-47 -71.5q-29 -31 -72 -49.5t-94 -18.5q-106 0 -168.5 63.5t-62.5 161.5zM305 1425q0 -66 40 -111.5 t112 -45.5q63 0 106.5 46t43.5 111q0 29 -9.5 57.5t-28 52.5t-46 38t-66.5 14q-70 0 -111 -47t-41 -115z" />
<glyph unicode="&#xe6;" horiz-adv-x="1505" d="M80 268q0 82 28.5 143.5t80 100.5t124 58.5t158.5 19.5h211v102q0 137 -56.5 195.5t-191.5 58.5q-115 0 -250 -43v84q61 18 133 28.5t129 10.5q129 0 202 -49t100 -148q47 88 124.5 142.5t194.5 54.5q94 0 160.5 -35t107.5 -94t60.5 -137t19.5 -164v-46.5t-2 -33.5h-651 q0 -102 18.5 -187t59.5 -145.5t107.5 -93.5t162.5 -33q72 0 138.5 19.5t135.5 50.5v-84q-57 -29 -136 -47.5t-156 -18.5q-117 0 -196 42t-130 114q-72 -66 -167 -111t-212 -45q-141 0 -224 78t-83 213zM170 283q0 -111 59.5 -169.5t178.5 -58.5q100 0 178 41t145 101 q-29 66 -42 143.5t-13 175.5h-199q-135 0 -221 -54t-86 -179zM766 588h565q0 72 -12 137.5t-43 114.5t-83 78.5t-134 29.5q-72 0 -124 -29.5t-87 -78.5t-55.5 -115t-26.5 -137z" />
<glyph unicode="&#xe7;" horiz-adv-x="819" d="M86 506q0 100 25.5 193.5t79 166t135.5 116.5t194 44q70 0 122 -10t106 -31v-88q-53 27 -105.5 38t-114.5 11q-90 0 -156.5 -34.5t-109.5 -95t-64.5 -141.5t-21.5 -173q0 -102 20.5 -184t63.5 -139.5t111.5 -89.5t165.5 -32q63 0 115.5 14.5t111.5 41.5v-86 q-47 -23 -110.5 -36.5t-125.5 -13.5h-8l-18 -79q72 -23 118 -73t46 -122q0 -94 -58.5 -135t-150.5 -41q-45 0 -78 8t-49 14v70q20 -8 51 -14t72 -6q61 0 96 25.5t35 76.5q0 37 -16.5 62.5t-41 42t-53.5 25.5t-53 13l33 138q-96 12 -166 53t-114 108.5t-65.5 159.5t-21.5 203 z" />
<glyph unicode="&#xe8;" horiz-adv-x="915" d="M86 502q0 102 22.5 197.5t70.5 168t122 115.5t176 43q94 0 161 -36t107.5 -97.5t60 -143t19.5 -174.5v-53t-2 -39h-649q2 -94 20.5 -172t60.5 -134t106.5 -88t158.5 -32q72 0 138.5 19.5t136.5 50.5v-84q-57 -29 -136 -47.5t-157 -18.5q-113 0 -192 40t-129 111 t-72.5 167t-22.5 207zM174 555h567q0 82 -11 153.5t-42 125t-84 84t-135 30.5q-76 0 -130 -32.5t-90 -88t-53.5 -126t-21.5 -146.5zM317 1550h86l142 -350h-82z" />
<glyph unicode="&#xe9;" horiz-adv-x="915" d="M86 502q0 102 22.5 197.5t70.5 168t122 115.5t176 43q94 0 161 -36t107.5 -97.5t60 -143t19.5 -174.5v-53t-2 -39h-649q2 -94 20.5 -172t60.5 -134t106.5 -88t158.5 -32q72 0 138.5 19.5t136.5 50.5v-84q-57 -29 -136 -47.5t-157 -18.5q-113 0 -192 40t-129 111 t-72.5 167t-22.5 207zM174 555h567q0 82 -11 153.5t-42 125t-84 84t-135 30.5q-76 0 -130 -32.5t-90 -88t-53.5 -126t-21.5 -146.5zM385 1200l141 350h86l-145 -350h-82z" />
<glyph unicode="&#xea;" horiz-adv-x="915" d="M86 502q0 102 22.5 197.5t70.5 168t122 115.5t176 43q94 0 161 -36t107.5 -97.5t60 -143t19.5 -174.5v-53t-2 -39h-649q2 -94 20.5 -172t60.5 -134t106.5 -88t158.5 -32q72 0 138.5 19.5t136.5 50.5v-84q-57 -29 -136 -47.5t-157 -18.5q-113 0 -192 40t-129 111 t-72.5 167t-22.5 207zM162 1200l276 350h43l277 -350h-90l-209 262l-207 -262h-90zM174 555h567q0 82 -11 153.5t-42 125t-84 84t-135 30.5q-76 0 -130 -32.5t-90 -88t-53.5 -126t-21.5 -146.5z" />
<glyph unicode="&#xeb;" horiz-adv-x="915" d="M86 502q0 102 22.5 197.5t70.5 168t122 115.5t176 43q94 0 161 -36t107.5 -97.5t60 -143t19.5 -174.5v-53t-2 -39h-649q2 -94 20.5 -172t60.5 -134t106.5 -88t158.5 -32q72 0 138.5 19.5t136.5 50.5v-84q-57 -29 -136 -47.5t-157 -18.5q-113 0 -192 40t-129 111 t-72.5 167t-22.5 207zM174 555h567q0 82 -11 153.5t-42 125t-84 84t-135 30.5q-76 0 -130 -32.5t-90 -88t-53.5 -126t-21.5 -146.5zM237 1413q0 29 17.5 46.5t46.5 17.5t46 -17.5t17 -46.5t-17 -46t-46 -17t-46.5 17t-17.5 46zM582 1413q0 29 17 46.5t46 17.5t46.5 -17.5 t17.5 -46.5t-17.5 -46t-46.5 -17t-46 17t-17 46z" />
<glyph unicode="&#xec;" horiz-adv-x="405" d="M38 1550h86l142 -350h-82zM160 0v1001h86v-1001h-86z" />
<glyph unicode="&#xed;" horiz-adv-x="405" d="M148 1200l141 350h86l-145 -350h-82zM160 0v1001h86v-1001h-86z" />
<glyph unicode="&#xee;" horiz-adv-x="405" d="M-92 1200l276 350h43l277 -350h-90l-209 262l-207 -262h-90zM160 0v1001h86v-1001h-86z" />
<glyph unicode="&#xef;" horiz-adv-x="405" d="M-29 1413q0 29 17.5 46.5t46.5 17.5t46 -17.5t17 -46.5t-17 -46t-46 -17t-46.5 17t-17.5 46zM160 0v1001h86v-1001h-86zM316 1413q0 29 17 46.5t46 17.5t46.5 -17.5t17.5 -46.5t-17.5 -46t-46.5 -17t-46 17t-17 46z" />
<glyph unicode="&#xf0;" horiz-adv-x="999" d="M86 418q0 98 25.5 180t72.5 139.5t116 89t153 31.5q109 0 197.5 -38t148.5 -95q-16 141 -61.5 253t-114.5 198l-349 -172v81l297 148q-86 84 -192.5 129t-224.5 51v80q162 -14 283.5 -72.5t211.5 -150.5l275 137v-82l-226 -113q102 -129 149.5 -293.5t47.5 -332.5 q0 -106 -17.5 -215t-63.5 -196t-127 -142.5t-206 -55.5q-184 0 -289.5 112t-105.5 329zM176 414q0 -74 17.5 -139.5t55.5 -114.5t96 -77t138 -28q93 0 154 43q61 45 98 116t52.5 157t15.5 172v46t-4 38q-66 70 -149 110.5t-183 40.5q-80 0 -135.5 -29.5t-90 -81t-50 -117 t-15.5 -136.5z" />
<glyph unicode="&#xf1;" horiz-adv-x="1024" d="M160 0v1001h71l13 -149q70 76 152.5 125t185.5 49q135 0 211.5 -78t76.5 -213v-735h-86v702q0 117 -52 180.5t-169 63.5q-92 0 -174 -54t-143 -126v-766h-86zM186 1266q0 96 35 161.5t125 65.5q59 0 103 -26.5t97 -67.5l33 -27q35 -29 62.5 -45t64.5 -16q47 0 66.5 36.5 t19.5 112.5h78q0 -98 -35 -162.5t-125 -64.5q-57 0 -102 25.5t-82 54.5l-49 39q-37 29 -66.5 46t-60.5 17q-53 0 -69.5 -45t-16.5 -104h-78z" />
<glyph unicode="&#xf2;" horiz-adv-x="987" d="M86 502q0 104 22.5 198.5t71.5 167t126 115.5t188 43q109 0 186.5 -43t126.5 -115.5t71.5 -167t22.5 -198.5q0 -106 -23.5 -201.5t-72.5 -167.5t-127 -114t-184 -42q-109 0 -186 42t-126 114t-72.5 167t-23.5 202zM176 506q0 -84 13.5 -164t49 -144.5t96 -103.5 t157.5 -39q98 0 159 39q63 39 98 103.5t48.5 144.5t13.5 164q0 78 -13.5 156.5t-48 142t-97 103.5t-160.5 40q-96 0 -158 -40t-96.5 -103.5t-48 -142t-13.5 -156.5zM327 1550h86l142 -350h-82z" />
<glyph unicode="&#xf3;" horiz-adv-x="987" d="M86 502q0 104 22.5 198.5t71.5 167t126 115.5t188 43q109 0 186.5 -43t126.5 -115.5t71.5 -167t22.5 -198.5q0 -106 -23.5 -201.5t-72.5 -167.5t-127 -114t-184 -42q-109 0 -186 42t-126 114t-72.5 167t-23.5 202zM176 506q0 -84 13.5 -164t49 -144.5t96 -103.5 t157.5 -39q98 0 159 39q63 39 98 103.5t48.5 144.5t13.5 164q0 78 -13.5 156.5t-48 142t-97 103.5t-160.5 40q-96 0 -158 -40t-96.5 -103.5t-48 -142t-13.5 -156.5zM428 1200l141 350h86l-145 -350h-82z" />
<glyph unicode="&#xf4;" horiz-adv-x="987" d="M86 502q0 104 22.5 198.5t71.5 167t126 115.5t188 43q109 0 186.5 -43t126.5 -115.5t71.5 -167t22.5 -198.5q0 -106 -23.5 -201.5t-72.5 -167.5t-127 -114t-184 -42q-109 0 -186 42t-126 114t-72.5 167t-23.5 202zM176 506q0 -84 13.5 -164t49 -144.5t96 -103.5 t157.5 -39q98 0 159 39q63 39 98 103.5t48.5 144.5t13.5 164q0 78 -13.5 156.5t-48 142t-97 103.5t-160.5 40q-96 0 -158 -40t-96.5 -103.5t-48 -142t-13.5 -156.5zM201 1200l276 350h43l277 -350h-90l-209 262l-207 -262h-90z" />
<glyph unicode="&#xf5;" horiz-adv-x="987" d="M86 502q0 104 22.5 198.5t71.5 167t126 115.5t188 43q109 0 186.5 -43t126.5 -115.5t71.5 -167t22.5 -198.5q0 -106 -23.5 -201.5t-72.5 -167.5t-127 -114t-184 -42q-109 0 -186 42t-126 114t-72.5 167t-23.5 202zM154 1266q0 96 35 161.5t125 65.5q59 0 103 -26.5 t97 -67.5l33 -27q35 -29 62.5 -45t64.5 -16q47 0 66.5 36.5t19.5 112.5h78q0 -98 -35 -162.5t-125 -64.5q-57 0 -102 25.5t-82 54.5l-49 39q-37 29 -66.5 46t-60.5 17q-53 0 -69.5 -45t-16.5 -104h-78zM176 506q0 -84 13.5 -164t49 -144.5t96 -103.5t157.5 -39q98 0 159 39 q63 39 98 103.5t48.5 144.5t13.5 164q0 78 -13.5 156.5t-48 142t-97 103.5t-160.5 40q-96 0 -158 -40t-96.5 -103.5t-48 -142t-13.5 -156.5z" />
<glyph unicode="&#xf6;" horiz-adv-x="987" d="M86 502q0 104 22.5 198.5t71.5 167t126 115.5t188 43q109 0 186.5 -43t126.5 -115.5t71.5 -167t22.5 -198.5q0 -106 -23.5 -201.5t-72.5 -167.5t-127 -114t-184 -42q-109 0 -186 42t-126 114t-72.5 167t-23.5 202zM176 506q0 -84 13.5 -164t49 -144.5t96 -103.5 t157.5 -39q98 0 159 39q63 39 98 103.5t48.5 144.5t13.5 164q0 78 -13.5 156.5t-48 142t-97 103.5t-160.5 40q-96 0 -158 -40t-96.5 -103.5t-48 -142t-13.5 -156.5zM270 1413q0 29 17.5 46.5t46.5 17.5t46 -17.5t17 -46.5t-17 -46t-46 -17t-46.5 17t-17.5 46zM615 1413 q0 29 17 46.5t46 17.5t46.5 -17.5t17.5 -46.5t-17.5 -46t-46.5 -17t-46 17t-17 46z" />
<glyph unicode="&#xf7;" d="M119 643v78h940v-78h-940zM508 313q0 35 22.5 58.5t57.5 23.5q33 0 57.5 -21.5t24.5 -60.5q0 -35 -23.5 -57.5t-58.5 -22.5q-33 0 -56.5 20.5t-23.5 59.5zM508 1044q0 35 22.5 58.5t57.5 23.5q33 0 57.5 -21.5t24.5 -60.5q0 -35 -23.5 -57t-58.5 -22q-33 0 -56.5 20.5 t-23.5 58.5z" />
<glyph unicode="&#xf8;" horiz-adv-x="987" d="M86 502q0 104 22.5 198.5t71.5 167t126 115.5t188 43q53 0 99 -11t87 -32l84 168h88l-109 -213q84 -72 121 -187.5t37 -248.5q0 -106 -23.5 -201.5t-72.5 -167.5t-127 -114t-184 -42q-61 0 -112.5 14.5t-92.5 39.5l-86 -170h-88l110 219q-72 72 -105.5 182.5t-33.5 239.5 zM176 506q0 -98 18.5 -190.5t69.5 -157.5l379 755q-63 35 -151 35q-96 0 -158 -40t-96.5 -103.5t-48 -142t-13.5 -156.5zM324 102q33 -23 73.5 -35t94.5 -12q98 0 160.5 39t97 103.5t48 144.5t13.5 164q0 98 -21.5 195.5t-82.5 162.5z" />
<glyph unicode="&#xf9;" horiz-adv-x="1024" d="M154 279v722h86v-690q0 -117 52 -185.5t169 -68.5q92 0 174 55.5t143 127.5v761h86v-1001h-71l-15 152q-68 -74 -151.5 -124.5t-184.5 -50.5q-135 0 -211.5 83t-76.5 219zM348 1550h86l142 -350h-82z" />
<glyph unicode="&#xfa;" horiz-adv-x="1024" d="M154 279v722h86v-690q0 -117 52 -185.5t169 -68.5q92 0 174 55.5t143 127.5v761h86v-1001h-71l-15 152q-68 -74 -151.5 -124.5t-184.5 -50.5q-135 0 -211.5 83t-76.5 219zM457 1200l141 350h86l-145 -350h-82z" />
<glyph unicode="&#xfb;" horiz-adv-x="1024" d="M154 279v722h86v-690q0 -117 52 -185.5t169 -68.5q92 0 174 55.5t143 127.5v761h86v-1001h-71l-15 152q-68 -74 -151.5 -124.5t-184.5 -50.5q-135 0 -211.5 83t-76.5 219zM209 1200l276 350h43l277 -350h-90l-209 262l-207 -262h-90z" />
<glyph unicode="&#xfc;" horiz-adv-x="1024" d="M154 279v722h86v-690q0 -117 52 -185.5t169 -68.5q92 0 174 55.5t143 127.5v761h86v-1001h-71l-15 152q-68 -74 -151.5 -124.5t-184.5 -50.5q-135 0 -211.5 83t-76.5 219zM258 1413q0 29 17.5 46.5t46.5 17.5t46 -17.5t17 -46.5t-17 -46t-46 -17t-46.5 17t-17.5 46z M603 1413q0 29 17 46.5t46 17.5t46.5 -17.5t17.5 -46.5t-17.5 -46t-46.5 -17t-46 17t-17 46z" />
<glyph unicode="&#xfd;" horiz-adv-x="862" d="M6 -272q29 -8 57.5 -10.5t53.5 -2.5q57 0 96 16.5t66.5 47.5t48 76t41.5 100l22 61l-373 985h97l321 -880l316 880h92l-391 -1054q-25 -70 -51.5 -126.5t-63.5 -97t-89 -63t-128 -22.5q-29 0 -58.5 4t-56.5 10v76zM393 1200l141 350h86l-145 -350h-82z" />
<glyph unicode="&#xfe;" horiz-adv-x="1015" d="M160 -348v1825h86v-603q63 61 143 106.5t176 45.5q100 0 170 -42t113 -111.5t62.5 -163t19.5 -193.5q0 -109 -22.5 -206t-69.5 -170.5t-124 -118t-184 -44.5q-84 0 -154.5 33t-129.5 92v-450h-86zM246 182q61 -57 128.5 -92t147.5 -35q92 0 152.5 36t97.5 98.5 t52.5 145.5t15.5 175q0 86 -14.5 165t-48.5 140.5t-90 97t-142 35.5q-90 0 -159 -44t-140 -109v-613z" />
<glyph unicode="&#xff;" horiz-adv-x="862" d="M6 -272q29 -8 57.5 -10.5t53.5 -2.5q57 0 96 16.5t66.5 47.5t48 76t41.5 100l22 61l-373 985h97l321 -880l316 880h92l-391 -1054q-25 -70 -51.5 -126.5t-63.5 -97t-89 -63t-128 -22.5q-29 0 -58.5 4t-56.5 10v76zM202 1413q0 29 17.5 46.5t46.5 17.5t46 -17.5t17 -46.5 t-17 -46t-46 -17t-46.5 17t-17.5 46zM547 1413q0 29 17 46.5t46 17.5t46.5 -17.5t17.5 -46.5t-17.5 -46t-46.5 -17t-46 17t-17 46z" />
<glyph unicode="&#x152;" horiz-adv-x="1855" d="M109 735q0 147 24.5 284.5t82.5 243t155.5 168t242.5 62.5q166 0 267.5 -82t154.5 -213v279h695v-84h-605v-598h580v-82h-580v-629h627v-84h-717v276q-53 -133 -154.5 -216t-267.5 -83q-143 0 -240.5 62.5t-155.5 167t-83.5 242t-25.5 286.5zM203 741q0 -119 15 -240.5 t59.5 -220t125 -160t211.5 -61.5q131 1 213 62t126 159.5t59.5 220.5t15.5 240q0 113 -15.5 232t-60.5 216t-126 159.5t-212 62.5t-211.5 -62.5t-125 -159.5t-59.5 -216t-15 -232z" />
<glyph unicode="&#x153;" horiz-adv-x="1646" d="M86 502q0 104 22.5 198.5t71.5 167t126 115.5t188 43q145 0 234 -78t128 -196q41 119 129 196.5t223 77.5q94 0 161 -36t108 -97.5t60 -143t19 -174.5v-53t-2 -39h-649q2 -94 20.5 -172t60.5 -134t106.5 -88t158.5 -32q72 0 138.5 19.5t136.5 50.5v-84 q-57 -29 -136 -47.5t-157 -18.5q-152 0 -244 74t-133 195q-41 -121 -131 -195t-231 -74q-109 0 -186 42t-126 114t-72.5 167t-23.5 202zM176 506q0 -84 13.5 -164t49 -144.5t96 -103.5t157.5 -39q98 0 159 39q63 39 98 103.5t48.5 144.5t13.5 164q0 78 -13.5 156.5t-48 142 t-97 103.5t-160.5 40q-96 0 -158 -40t-96.5 -103.5t-48 -142t-13.5 -156.5zM905 555h568q0 82 -11.5 153.5t-42 125t-84 84t-135.5 30.5q-76 0 -130 -32.5t-90 -88t-53.5 -126t-21.5 -146.5z" />
<glyph unicode="&#x178;" horiz-adv-x="1040" d="M27 1477h98l391 -793l406 793h92l-457 -879v-598h-90v598zM280 1753q0 29 17.5 46.5t46.5 17.5t46 -17.5t17 -46.5t-17 -46t-46 -17t-46.5 17t-17.5 46zM625 1753q0 29 17 46.5t46 17.5t46.5 -17.5t17.5 -46.5t-17.5 -46t-46.5 -17t-46 17t-17 46z" />
<glyph unicode="&#x2c6;" horiz-adv-x="1024" d="M213 1200l276 350h43l277 -350h-90l-209 262l-207 -262h-90z" />
<glyph unicode="&#x2dc;" horiz-adv-x="1024" d="M170 1266q0 96 35 161.5t125 65.5q59 0 103 -26.5t97 -67.5l33 -27q35 -29 62.5 -45t64.5 -16q47 0 66.5 36.5t19.5 112.5h78q0 -98 -35 -162.5t-125 -64.5q-57 0 -102 25.5t-82 54.5l-49 39q-37 29 -66.5 46t-60.5 17q-53 0 -69.5 -45t-16.5 -104h-78z" />
<glyph unicode="&#x2000;" horiz-adv-x="1025" />
<glyph unicode="&#x2001;" horiz-adv-x="2050" />
<glyph unicode="&#x2002;" horiz-adv-x="1025" />
<glyph unicode="&#x2003;" horiz-adv-x="2050" />
<glyph unicode="&#x2004;" horiz-adv-x="683" />
<glyph unicode="&#x2005;" horiz-adv-x="512" />
<glyph unicode="&#x2006;" horiz-adv-x="341" />
<glyph unicode="&#x2007;" horiz-adv-x="341" />
<glyph unicode="&#x2008;" horiz-adv-x="256" />
<glyph unicode="&#x2009;" horiz-adv-x="410" />
<glyph unicode="&#x200a;" horiz-adv-x="113" />
<glyph unicode="&#x2010;" horiz-adv-x="888" d="M133 561v78h623v-78h-623z" />
<glyph unicode="&#x2011;" horiz-adv-x="888" d="M133 561v78h623v-78h-623z" />
<glyph unicode="&#x2012;" horiz-adv-x="888" d="M133 561v78h623v-78h-623z" />
<glyph unicode="&#x2013;" horiz-adv-x="1024" d="M0 561v78h1024v-78h-1024z" />
<glyph unicode="&#x2014;" horiz-adv-x="2048" d="M0 561v78h2048v-78h-2048z" />
<glyph unicode="&#x2018;" horiz-adv-x="438" d="M133 1182q0 72 35 153.5t78 141.5h92q-35 -47 -62.5 -106.5t-42.5 -106.5q47 -4 70 -30t23 -67t-26 -72.5t-67 -31.5q-51 0 -75.5 36t-24.5 83z" />
<glyph unicode="&#x2019;" horiz-adv-x="438" d="M100 1079q35 47 62.5 106.5t42.5 106.5q-47 4 -69.5 30t-22.5 67t25.5 72.5t66.5 31.5q51 0 75.5 -36t24.5 -83q0 -72 -34.5 -153.5t-77.5 -141.5h-93z" />
<glyph unicode="&#x201a;" horiz-adv-x="438" d="M100 -219q35 47 62.5 106.5t42.5 106.5q-47 4 -69.5 29.5t-22.5 66.5t25.5 73t66.5 32q51 0 75.5 -36t24.5 -83q0 -72 -34.5 -154t-77.5 -141h-93z" />
<glyph unicode="&#x201c;" horiz-adv-x="745" d="M133 1182q0 72 35 153.5t78 141.5h92q-35 -47 -62.5 -106.5t-42.5 -106.5q47 -4 70 -30t23 -67t-26 -72.5t-67 -31.5q-51 0 -75.5 36t-24.5 83zM440 1182q0 72 35 153.5t78 141.5h92q-35 -47 -62.5 -106.5t-42.5 -106.5q47 -4 70 -30t23 -67t-26 -72.5t-67 -31.5 q-51 0 -75.5 36t-24.5 83z" />
<glyph unicode="&#x201d;" horiz-adv-x="745" d="M100 1079q35 47 62.5 106.5t42.5 106.5q-47 4 -69.5 30t-22.5 67t25.5 72.5t66.5 31.5q51 0 75.5 -36t24.5 -83q0 -72 -34.5 -153.5t-77.5 -141.5h-93zM407 1079q35 47 62.5 106.5t42.5 106.5q-47 4 -69.5 30t-22.5 67t25.5 72.5t66.5 31.5q51 0 75.5 -36t24.5 -83 q0 -72 -34.5 -153.5t-77.5 -141.5h-93z" />
<glyph unicode="&#x201e;" horiz-adv-x="745" d="M100 -219q35 47 62.5 106.5t42.5 106.5q-47 4 -69.5 29.5t-22.5 66.5t25.5 73t66.5 32q51 0 75.5 -36t24.5 -83q0 -72 -34.5 -154t-77.5 -141h-93zM407 -219q35 47 62.5 106.5t42.5 106.5q-47 4 -69.5 29.5t-22.5 66.5t25.5 73t66.5 32q51 0 75.5 -36t24.5 -83 q0 -72 -34.5 -154t-77.5 -141h-93z" />
<glyph unicode="&#x2022;" horiz-adv-x="817" d="M143 602q0 51 18.5 99.5t52.5 85t83 58t111 21.5q57 0 106 -20.5t84 -55t55.5 -83t20.5 -105.5q0 -53 -18.5 -100t-53.5 -84q-33 -37 -83 -58.5t-111 -21.5q-59 0 -107.5 20.5t-83.5 56.5t-54.5 84t-19.5 103z" />
<glyph unicode="&#x2026;" horiz-adv-x="1542" d="M135 88q0 45 30 76t71 31q37 0 68.5 -30t31.5 -77q0 -43 -32 -73.5t-68 -30.5q-39 0 -70 27.5t-31 76.5zM678 88q0 45 30 76t71 31q37 0 68.5 -30t31.5 -77q0 -43 -32 -73.5t-68 -30.5q-39 0 -70 27.5t-31 76.5zM1220 88q0 45 30 76t71 31q37 0 68.5 -30t31.5 -77 q0 -43 -32 -73.5t-68 -30.5q-39 0 -70 27.5t-31 76.5z" />
<glyph unicode="&#x202f;" horiz-adv-x="410" />
<glyph unicode="&#x2039;" horiz-adv-x="528" d="M92 532v39l246 336h98l-262 -354l262 -354h-100z" />
<glyph unicode="&#x203a;" horiz-adv-x="528" d="M92 199l262 354l-262 354h98l246 -336v-39l-243 -333h-101z" />
<glyph unicode="&#x205f;" horiz-adv-x="512" />
<glyph unicode="&#x20ac;" d="M152 535v79h165q-2 29 -2 60v61q0 31 1 61.5t3 61.5h-167v80h176q14 113 49 214t94 177t144 120t202 44q137 0 262 -51v-92q-66 29 -127 44t-133 15q-96 0 -164.5 -38t-115.5 -102.5t-75 -149.5t-40 -181h520v-80h-528q-4 -29 -4 -58.5v-58.5v-64.5t2 -62.5h530v-79h-522 q10 -98 35.5 -184.5t71.5 -151t117 -101.5t173 -37q70 0 136.5 19.5t123.5 46.5v-90q-59 -29 -125.5 -44.5t-144.5 -15.5q-123 0 -209 43t-142.5 119t-88 177.5t-43.5 218.5h-174z" />
<glyph unicode="&#x2122;" horiz-adv-x="1667" d="M51 1405v72h619v-72h-273v-668h-75v668h-271zM799 735v742h92l262 -566l274 566h86v-742h-73v604l-250 -512h-78l-240 506v-598h-73z" />
<glyph unicode="&#xe000;" horiz-adv-x="1003" d="M0 0v1004h1004v-1004h-1004z" />
</font>
</defs>
</svg>
